<?xml version="1.0" encoding="UTF-8"?>
<!DOCTYPE svg PUBLIC "-//W3C//DTD SVG 1.1//EN" "http://www.w3.org/Graphics/SVG/1.1/DTD/svg11.dtd">
<svg xmlns="http://www.w3.org/2000/svg" version="1.1" width="280px" height="284px" style="shape-rendering:geometricPrecision; text-rendering:geometricPrecision; image-rendering:optimizeQuality; fill-rule:evenodd; clip-rule:evenodd" xmlns:xlink="http://www.w3.org/1999/xlink">
<g><path style="opacity:0.208" fill="#b9c0bf" d="M 183.5,21.5 C 186.984,20.8346 190.651,20.5013 194.5,20.5C 200.409,20.3491 206.075,21.0158 211.5,22.5C 210.833,22.5 210.167,22.5 209.5,22.5C 200.862,21.6602 192.195,21.3268 183.5,21.5 Z"/></g>
<g><path style="opacity:0.129" fill="#a6acae" d="M 102.5,22.5 C 107.264,22.7689 111.597,24.1022 115.5,26.5C 110.928,25.6124 106.595,24.2791 102.5,22.5 Z"/></g>
<g><path style="opacity:0.498" fill="#718084" d="M 68.5,22.5 C 65.4954,24.2766 62.1621,25.2766 58.5,25.5C 61.5046,23.7234 64.8379,22.7234 68.5,22.5 Z"/></g>
<g><path style="opacity:0.329" fill="#7e8a89" d="M 177.5,22.5 C 174.495,24.2766 171.162,25.2766 167.5,25.5C 170.505,23.7234 173.838,22.7234 177.5,22.5 Z"/></g>
<g><path style="opacity:0.83" fill="#4e5b60" d="M 209.5,22.5 C 210.167,22.5 210.833,22.5 211.5,22.5C 214.152,22.4095 216.485,23.0762 218.5,24.5C 214.988,25.0545 211.988,24.3878 209.5,22.5 Z"/></g>
<g><path style="opacity:0.945" fill="#33434d" d="M 102.5,22.5 C 106.595,24.2791 110.928,25.6124 115.5,26.5C 115.833,26.5 116.167,26.5 116.5,26.5C 116.833,27.1667 117.167,27.8333 117.5,28.5C 112.98,28.1737 108.647,27.007 104.5,25C 86.9739,21.8079 69.9739,23.3079 53.5,29.5C 52.7492,30.376 52.2492,31.376 52,32.5C 50.951,30.8934 49.451,30.2267 47.5,30.5C 50.7403,28.049 54.4069,26.3824 58.5,25.5C 62.1621,25.2766 65.4954,24.2766 68.5,22.5C 73.7483,20.9779 79.2483,20.3112 85,20.5C 91.0744,20.3408 96.9077,21.0075 102.5,22.5 Z"/></g>
<g><path style="opacity:0.106" fill="#b7bdc3" d="M 116.5,26.5 C 118.153,26.6596 119.486,27.3263 120.5,28.5C 119.5,28.5 118.5,28.5 117.5,28.5C 117.167,27.8333 116.833,27.1667 116.5,26.5 Z"/></g>
<g><path style="opacity:1" fill="#0c2c4c" d="M 50.5,46.5 C 50.1667,47.1667 49.8333,47.8333 49.5,48.5C 43.9561,48.5761 38.6227,49.5761 33.5,51.5C 35.1045,53.1789 35.7711,55.1789 35.5,57.5C 32.0086,57.4832 29.3419,58.9832 27.5,62C 28.2524,62.6708 28.5858,63.5041 28.5,64.5C 27.1667,66.5 25.5,68.1667 23.5,69.5C 22.1526,68.9717 20.8193,68.805 19.5,69C 19.9574,69.414 20.2907,69.914 20.5,70.5C 19.26,73.196 17.5934,75.5294 15.5,77.5C 13.8793,77.2131 12.8793,76.2131 12.5,74.5C 13.1616,70.8494 15.1616,68.516 18.5,67.5C 19.4861,64.507 20.4861,61.507 21.5,58.5C 22.5,58.5 23.5,58.5 24.5,58.5C 24.4914,56.6916 24.9914,55.0249 26,53.5C 29.7069,50.4242 32.7069,46.7576 35,42.5C 35.8159,41.1772 36.9826,40.5106 38.5,40.5C 42.155,40.2135 44.9883,38.5468 47,35.5C 48.0665,37.2826 49.5665,37.7826 51.5,37C 53.3945,35.2246 55.0611,33.2246 56.5,31C 60.5205,28.5915 64.8539,26.9249 69.5,26C 80.5012,25.7221 91.5012,25.8887 102.5,26.5C 102.5,27.5 102.5,28.5 102.5,29.5C 99.1379,29.0695 96.3046,30.0695 94,32.5C 90.5463,31.6501 86.8796,31.6501 83,32.5C 81.4411,31.9706 79.9411,31.304 78.5,30.5C 76.1992,31.2688 76.0325,32.2688 78,33.5C 78.3333,33.1667 78.6667,32.8333 79,32.5C 79.4935,34.1341 79.6602,35.8008 79.5,37.5C 76.2234,37.7839 73.0567,37.4505 70,36.5C 67.0169,37.9165 63.8502,38.7499 60.5,39C 57.5452,41.0717 54.2119,42.405 50.5,43C 49.3157,44.1455 49.3157,45.3121 50.5,46.5 Z"/></g>
<g><path style="opacity:0.529" fill="#58646c" d="M 120.5,28.5 C 124.173,30.0002 127.506,32.0002 130.5,34.5C 127.506,32.0002 124.173,30.0002 120.5,28.5 Z"/></g>
<g><path style="opacity:0.059" fill="#c2cdcd" d="M 236.5,32.5 C 238.027,32.427 239.027,33.0937 239.5,34.5C 237.973,34.573 236.973,33.9063 236.5,32.5 Z"/></g>
<g><path style="opacity:1" fill="#0d2c4b" d="M 262.5,64.5 C 262.833,64.5 263.167,64.5 263.5,64.5C 263.996,67.9793 264.996,71.3127 266.5,74.5C 265.318,76.6454 263.818,76.6454 262,74.5C 260.558,71.9504 259.392,69.2837 258.5,66.5C 256.473,65.3067 254.973,63.64 254,61.5C 253.667,61.8333 253.333,62.1667 253,62.5C 252.517,61.552 252.351,60.552 252.5,59.5C 250.194,59.0074 247.861,58.6741 245.5,58.5C 244.508,58.6716 243.842,58.3382 243.5,57.5C 241.998,55.825 240.665,53.9917 239.5,52C 238.552,51.5172 237.552,51.3505 236.5,51.5C 235.167,50.8333 233.833,50.1667 232.5,49.5C 232.611,48.8826 232.944,48.3826 233.5,48C 231.564,47.187 229.564,46.687 227.5,46.5C 227.649,45.448 227.483,44.448 227,43.5C 225,42.1667 223.333,40.5 222,38.5C 220.559,39.2598 219.059,39.9264 217.5,40.5C 208.235,38.957 198.902,37.957 189.5,37.5C 185.659,38.4353 181.826,39.4353 178,40.5C 177.127,40.2645 176.293,39.9312 175.5,39.5C 172.997,41.4953 170.164,42.8286 167,43.5C 165.541,43.1918 164.374,42.5251 163.5,41.5C 162.817,39.8235 161.483,39.1568 159.5,39.5C 159.5,37.8333 159.5,36.1667 159.5,34.5C 161.5,34.5 163.5,34.5 165.5,34.5C 166.09,38.9195 168.09,39.5862 171.5,36.5C 170.076,34.2822 168.076,32.7822 165.5,32C 166.756,31.5831 167.423,30.7498 167.5,29.5C 171.503,28.6667 175.17,27.0001 178.5,24.5C 183.489,23.7514 188.489,23.0848 193.5,22.5C 201.424,24.1581 209.424,25.4914 217.5,26.5C 218.213,31.3654 220.88,32.6987 225.5,30.5C 228.642,32.1187 231.975,32.7854 235.5,32.5C 235.343,33.8734 235.51,35.2068 236,36.5C 241.154,38.5555 245.487,41.5555 249,45.5C 249.557,47.6147 250.391,49.6147 251.5,51.5C 254.138,52.7037 256.471,54.3704 258.5,56.5C 259.543,59.455 260.877,62.1217 262.5,64.5 Z"/></g>
<g><path style="opacity:0.935" fill="#2a3d4d" d="M 232.5,49.5 C 232.167,49.5 231.833,49.5 231.5,49.5C 224.242,45.7656 216.575,43.0989 208.5,41.5C 200.344,40.3434 192.01,40.1768 183.5,41C 180.896,41.3903 178.562,42.2237 176.5,43.5C 175.791,44.404 174.791,44.7373 173.5,44.5C 171.447,44.4021 169.78,45.0687 168.5,46.5C 167.486,47.6737 166.153,48.3404 164.5,48.5C 163.833,48.5 163.167,48.5 162.5,48.5C 161.199,46.3281 160.199,43.9948 159.5,41.5C 160.833,41.5 162.167,41.5 163.5,41.5C 164.374,42.5251 165.541,43.1918 167,43.5C 170.164,42.8286 172.997,41.4953 175.5,39.5C 176.293,39.9312 177.127,40.2645 178,40.5C 181.826,39.4353 185.659,38.4353 189.5,37.5C 198.902,37.957 208.235,38.957 217.5,40.5C 219.059,39.9264 220.559,39.2598 222,38.5C 223.333,40.5 225,42.1667 227,43.5C 227.483,44.448 227.649,45.448 227.5,46.5C 229.564,46.687 231.564,47.187 233.5,48C 232.944,48.3826 232.611,48.8826 232.5,49.5 Z"/></g>
<g><path style="opacity:0.02" fill="#bfcdce" d="M 245.5,39.5 C 247.404,39.7376 248.738,40.7376 249.5,42.5C 247.596,42.2624 246.262,41.2624 245.5,39.5 Z"/></g>
<g><path style="opacity:1" fill="#1d3342" d="M 183.5,21.5 C 192.195,21.3268 200.862,21.6602 209.5,22.5C 211.988,24.3878 214.988,25.0545 218.5,24.5C 225.03,26.1006 231.03,28.7673 236.5,32.5C 236.973,33.9063 237.973,34.573 239.5,34.5C 242.109,35.4431 244.109,37.1097 245.5,39.5C 246.262,41.2624 247.596,42.2624 249.5,42.5C 250.483,45.6691 252.483,48.0024 255.5,49.5C 256.419,52.0892 258.086,54.0892 260.5,55.5C 261.929,58.3084 262.595,61.3084 262.5,64.5C 260.877,62.1217 259.543,59.455 258.5,56.5C 256.471,54.3704 254.138,52.7037 251.5,51.5C 250.391,49.6147 249.557,47.6147 249,45.5C 245.487,41.5555 241.154,38.5555 236,36.5C 235.51,35.2068 235.343,33.8734 235.5,32.5C 231.975,32.7854 228.642,32.1187 225.5,30.5C 220.88,32.6987 218.213,31.3654 217.5,26.5C 209.424,25.4914 201.424,24.1581 193.5,22.5C 188.489,23.0848 183.489,23.7514 178.5,24.5C 175.17,27.0001 171.503,28.6667 167.5,29.5C 163.224,32.0241 158.89,34.6908 154.5,37.5C 152.929,38.3094 151.262,38.6427 149.5,38.5C 149.649,39.552 149.483,40.552 149,41.5C 147.434,40.9394 146.101,41.6061 145,43.5C 144.667,42.8333 144.333,42.1667 144,41.5C 138.853,41.6279 133.353,42.2946 127.5,43.5C 127.976,41.0069 129.31,39.0069 131.5,37.5C 130.873,36.5832 130.539,35.5832 130.5,34.5C 134.078,36.0751 137.411,38.0751 140.5,40.5C 148.49,33.6718 157.49,28.6718 167.5,25.5C 171.162,25.2766 174.495,24.2766 177.5,22.5C 179.265,21.5386 181.265,21.2053 183.5,21.5 Z"/></g>
<g><path style="opacity:0.027" fill="#e1e7e8" d="M 208.5,41.5 C 197.746,41.0976 187.079,41.7643 176.5,43.5C 178.562,42.2237 180.896,41.3903 183.5,41C 192.01,40.1768 200.344,40.3434 208.5,41.5 Z"/></g>
<g><path style="opacity:0.286" fill="#9ba2a5" d="M 35.5,38.5 C 34.4154,40.5869 32.7488,41.9202 30.5,42.5C 31.5846,40.4131 33.2512,39.0798 35.5,38.5 Z"/></g>
<g><path style="opacity:1" fill="#1b303d" d="M 47.5,30.5 C 45.5178,34.1824 42.5178,37.5158 38.5,40.5C 36.9826,40.5106 35.8159,41.1772 35,42.5C 32.7069,46.7576 29.7069,50.4242 26,53.5C 24.9914,55.0249 24.4914,56.6916 24.5,58.5C 23.5,58.5 22.5,58.5 21.5,58.5C 20.4861,61.507 19.4861,64.507 18.5,67.5C 15.1616,68.516 13.1616,70.8494 12.5,74.5C 12.8793,76.2131 13.8793,77.2131 15.5,77.5C 15.5,78.8333 15.5,80.1667 15.5,81.5C 14.0937,81.9731 13.427,82.9731 13.5,84.5C 13.6716,85.4916 13.3382,86.1583 12.5,86.5C 11.2101,87.0577 10.3768,88.0577 10,89.5C 9.41173,84.4724 9.5784,79.4724 10.5,74.5C 10.5,73.8333 10.5,73.1667 10.5,72.5C 11.9063,72.0269 12.573,71.0269 12.5,69.5C 12.5,69.1667 12.5,68.8333 12.5,68.5C 13.6737,67.4863 14.3404,66.153 14.5,64.5C 14.5,64.1667 14.5,63.8333 14.5,63.5C 15.9063,63.0269 16.573,62.0269 16.5,60.5C 17.9063,60.0269 18.573,59.0269 18.5,57.5C 18.7376,55.5956 19.7376,54.2623 21.5,53.5C 23.6326,51.9095 25.2993,49.9095 26.5,47.5C 28.9354,46.7298 30.2687,45.0632 30.5,42.5C 32.7488,41.9202 34.4154,40.5869 35.5,38.5C 38.8033,34.8442 42.8033,32.1775 47.5,30.5 Z"/></g>
<g><path style="opacity:0.773" fill="#637471" d="M 30.5,42.5 C 30.2687,45.0632 28.9354,46.7298 26.5,47.5C 27.0798,45.2512 28.4131,43.5846 30.5,42.5 Z"/></g>
<g><path style="opacity:0.122" fill="#abbfbf" d="M 173.5,44.5 C 172.22,45.9313 170.553,46.5979 168.5,46.5C 169.78,45.0687 171.447,44.4021 173.5,44.5 Z"/></g>
<g><path style="opacity:0.255" fill="#959da3" d="M 249.5,42.5 C 252.243,44.2393 254.243,46.5726 255.5,49.5C 252.483,48.0024 250.483,45.6691 249.5,42.5 Z"/></g>
<g><path style="opacity:0.051" fill="#91a2a5" d="M 50.5,46.5 C 51.5,46.5 52.5,46.5 53.5,46.5C 52.4863,47.6737 51.153,48.3404 49.5,48.5C 49.8333,47.8333 50.1667,47.1667 50.5,46.5 Z"/></g>
<g><path style="opacity:0.875" fill="#6c7484" d="M 162.5,48.5 C 163.167,48.5 163.833,48.5 164.5,48.5C 162.819,50.0075 160.819,51.0075 158.5,51.5C 159.598,50.603 159.598,49.7697 158.5,49C 159.793,48.51 161.127,48.3433 162.5,48.5 Z"/></g>
<g><path style="opacity:0.341" fill="#b5beb9" d="M 86.5,49.5 C 81.8592,50.1266 77.1925,50.4599 72.5,50.5C 75.9835,49.5984 79.6501,48.9318 83.5,48.5C 84.7261,48.5195 85.7261,48.8529 86.5,49.5 Z"/></g>
<g><path style="opacity:1" fill="#273a4a" d="M 110.5,43.5 C 112.527,43.3379 114.527,43.5045 116.5,44C 120.119,46.9629 123.952,49.4629 128,51.5C 129.113,50.2889 130.28,50.2889 131.5,51.5C 133.769,57.6332 138.102,60.1332 144.5,59C 147.322,56.8232 150.322,54.8232 153.5,53C 151.405,52.4444 151.238,51.9444 153,51.5C 154.011,52.0556 154.844,52.7222 155.5,53.5C 150.21,57.7799 144.877,62.1132 139.5,66.5C 131.54,57.8681 122.207,51.2015 111.5,46.5C 110.89,45.609 110.557,44.609 110.5,43.5 Z"/></g>
<g><path style="opacity:0.212" fill="#b5bfbc" d="M 213.5,51.5 C 203.861,50.6401 194.194,50.3068 184.5,50.5C 194.244,47.8895 203.911,48.2229 213.5,51.5 Z"/></g>
<g><path style="opacity:0.071" fill="#c1c9c9" d="M 88.5,49.5 C 92.4578,49.2511 96.1244,49.9177 99.5,51.5C 95.6125,51.3541 91.9458,50.6874 88.5,49.5 Z"/></g>
<g><path style="opacity:0.071" fill="#c9d2d4" d="M 231.5,49.5 C 231.833,49.5 232.167,49.5 232.5,49.5C 233.833,50.1667 235.167,50.8333 236.5,51.5C 236.5,51.8333 236.5,52.1667 236.5,52.5C 234.326,52.2503 232.659,51.2503 231.5,49.5 Z"/></g>
<g><path style="opacity:0.584" fill="#7a8a8b" d="M 72.5,50.5 C 69.7814,51.913 66.7814,52.5797 63.5,52.5C 66.2186,51.087 69.2186,50.4203 72.5,50.5 Z"/></g>
<g><path style="opacity:1" fill="#0e2c47" d="M 117.5,28.5 C 118.5,28.5 119.5,28.5 120.5,28.5C 122.129,31.0675 124.295,33.0675 127,34.5C 127.986,33.8288 129.153,33.8288 130.5,34.5C 130.539,35.5832 130.873,36.5832 131.5,37.5C 129.31,39.0069 127.976,41.0069 127.5,43.5C 133.353,42.2946 138.853,41.6279 144,41.5C 144.333,42.1667 144.667,42.8333 145,43.5C 146.101,41.6061 147.434,40.9394 149,41.5C 149.483,40.552 149.649,39.552 149.5,38.5C 151.262,38.6427 152.929,38.3094 154.5,37.5C 158.89,34.6908 163.224,32.0241 167.5,29.5C 167.423,30.7498 166.756,31.5831 165.5,32C 168.076,32.7822 170.076,34.2822 171.5,36.5C 168.09,39.5862 166.09,38.9195 165.5,34.5C 163.5,34.5 161.5,34.5 159.5,34.5C 159.5,36.1667 159.5,37.8333 159.5,39.5C 161.483,39.1568 162.817,39.8235 163.5,41.5C 162.167,41.5 160.833,41.5 159.5,41.5C 160.199,43.9948 161.199,46.3281 162.5,48.5C 161.127,48.3433 159.793,48.51 158.5,49C 159.598,49.7697 159.598,50.603 158.5,51.5C 156.973,51.427 155.973,52.0937 155.5,53.5C 154.844,52.7222 154.011,52.0556 153,51.5C 151.238,51.9444 151.405,52.4444 153.5,53C 150.322,54.8232 147.322,56.8232 144.5,59C 138.102,60.1332 133.769,57.6332 131.5,51.5C 130.28,50.2889 129.113,50.2889 128,51.5C 123.952,49.4629 120.119,46.9629 116.5,44C 114.527,43.5045 112.527,43.3379 110.5,43.5C 107.167,43.1667 103.833,42.8333 100.5,42.5C 99.3915,41.71 98.0581,41.21 96.5,41C 86.1398,40.2667 75.8065,40.4334 65.5,41.5C 61.7528,42.0805 58.0861,43.0805 54.5,44.5C 54.1373,45.1835 53.8039,45.8501 53.5,46.5C 52.5,46.5 51.5,46.5 50.5,46.5C 49.3157,45.3121 49.3157,44.1455 50.5,43C 54.2119,42.405 57.5452,41.0717 60.5,39C 63.8502,38.7499 67.0169,37.9165 70,36.5C 73.0567,37.4505 76.2234,37.7839 79.5,37.5C 79.6602,35.8008 79.4935,34.1341 79,32.5C 78.6667,32.8333 78.3333,33.1667 78,33.5C 76.0325,32.2688 76.1992,31.2688 78.5,30.5C 79.9411,31.304 81.4411,31.9706 83,32.5C 86.8796,31.6501 90.5463,31.6501 94,32.5C 96.3046,30.0695 99.1379,29.0695 102.5,29.5C 102.5,28.5 102.5,27.5 102.5,26.5C 91.5012,25.8887 80.5012,25.7221 69.5,26C 64.8539,26.9249 60.5205,28.5915 56.5,31C 55.0611,33.2246 53.3945,35.2246 51.5,37C 49.5665,37.7826 48.0665,37.2826 47,35.5C 44.9883,38.5468 42.155,40.2135 38.5,40.5C 42.5178,37.5158 45.5178,34.1824 47.5,30.5C 49.451,30.2267 50.951,30.8934 52,32.5C 52.2492,31.376 52.7492,30.376 53.5,29.5C 69.9739,23.3079 86.9739,21.8079 104.5,25C 108.647,27.007 112.98,28.1737 117.5,28.5 Z"/></g>
<g><path style="opacity:0.786" fill="#69777f" d="M 100.5,42.5 C 103.833,42.8333 107.167,43.1667 110.5,43.5C 110.557,44.609 110.89,45.609 111.5,46.5C 107.747,45.1406 104.081,43.8073 100.5,42.5 Z"/></g>
<g><path style="opacity:0.871" fill="#4c5f65" d="M 65.5,41.5 C 64.5,42.1667 63.5,42.8333 62.5,43.5C 59.7846,45.0719 56.7846,46.0719 53.5,46.5C 53.8039,45.8501 54.1373,45.1835 54.5,44.5C 58.0861,43.0805 61.7528,42.0805 65.5,41.5 Z"/></g>
<g><path style="opacity:0.029" fill="#d2dbda" d="M 100.5,42.5 C 87.7726,40.9471 75.106,41.2805 62.5,43.5C 63.5,42.8333 64.5,42.1667 65.5,41.5C 75.8065,40.4334 86.1398,40.2667 96.5,41C 98.0581,41.21 99.3915,41.71 100.5,42.5 Z"/></g>
<g><path style="opacity:0.998" fill="#233745" d="M 184.5,50.5 C 194.194,50.3068 203.861,50.6401 213.5,51.5C 214.791,51.2627 215.791,51.596 216.5,52.5C 217.78,53.9313 219.447,54.5979 221.5,54.5C 224.119,54.9255 226.453,55.9255 228.5,57.5C 228.5,57.8333 228.5,58.1667 228.5,58.5C 223.614,57.9399 218.947,56.4399 214.5,54C 212.19,53.5034 209.857,53.3367 207.5,53.5C 205.393,52.5318 203.059,52.1984 200.5,52.5C 190.233,51.4991 180.566,53.1657 171.5,57.5C 169.52,59.1049 167.187,60.2715 164.5,61C 162.109,62.3086 162.109,63.3086 164.5,64C 162.167,64.3333 159.833,64.6667 157.5,65C 156.663,66.0113 156.33,67.1779 156.5,68.5C 154.176,68.6615 152.509,69.8282 151.5,72C 154.572,74.0597 157.238,73.893 159.5,71.5C 161.167,71.5 162.833,71.5 164.5,71.5C 163.833,72.1667 163.167,72.8333 162.5,73.5C 159.869,75.1526 157.203,76.8193 154.5,78.5C 154.167,78.5 153.833,78.5 153.5,78.5C 153.5,77.1667 153.5,75.8333 153.5,74.5C 151.061,75.0525 148.727,75.0525 146.5,74.5C 145.15,75.9501 143.484,76.6168 141.5,76.5C 144.869,72.1308 148.869,68.4642 153.5,65.5C 154.5,65.1667 155.167,64.5 155.5,63.5C 158.494,61.0002 161.827,59.0002 165.5,57.5C 167.967,57.2451 169.967,56.2451 171.5,54.5C 174.855,54.3104 177.855,53.3104 180.5,51.5C 181.568,50.5655 182.901,50.2322 184.5,50.5 Z"/></g>
<g><path style="opacity:0.329" fill="#8b8f8f" d="M 26.5,47.5 C 25.2993,49.9095 23.6326,51.9095 21.5,53.5C 22.2471,50.6385 23.9138,48.6385 26.5,47.5 Z"/></g>
<g><path style="opacity:0.02" fill="#b3cdd4" d="M 158.5,51.5 C 158.027,52.9063 157.027,53.573 155.5,53.5C 155.973,52.0937 156.973,51.427 158.5,51.5 Z"/></g>
<g><path style="opacity:0.298" fill="#94a3a3" d="M 180.5,51.5 C 177.855,53.3104 174.855,54.3104 171.5,54.5C 174.084,52.5275 177.084,51.5275 180.5,51.5 Z"/></g>
<g><path style="opacity:0.667" fill="#6e7a84" d="M 236.5,52.5 C 236.5,52.1667 236.5,51.8333 236.5,51.5C 237.552,51.3505 238.552,51.5172 239.5,52C 240.665,53.9917 241.998,55.825 243.5,57.5C 240.883,56.2141 238.55,54.5475 236.5,52.5 Z"/></g>
<g><path style="opacity:0.945" fill="#203744" d="M 49.5,48.5 C 47.1032,50.53 44.4366,52.1967 41.5,53.5C 39.9731,53.427 38.9731,54.0937 38.5,55.5C 37.7095,56.4013 36.7095,57.0679 35.5,57.5C 35.7711,55.1789 35.1045,53.1789 33.5,51.5C 38.6227,49.5761 43.9561,48.5761 49.5,48.5 Z"/></g>
<g><path style="opacity:0.525" fill="#8c9b98" d="M 63.5,52.5 C 61.8984,54.0739 59.8984,54.7406 57.5,54.5C 59.2143,53.2616 61.2143,52.595 63.5,52.5 Z"/></g>
<g><path style="opacity:0.188" fill="#a1a6a7" d="M 216.5,52.5 C 218.553,52.4021 220.22,53.0687 221.5,54.5C 219.447,54.5979 217.78,53.9313 216.5,52.5 Z"/></g>
<g><path style="opacity:0.004" fill="#d7dadc" d="M 41.5,53.5 C 41.0269,54.9063 40.0269,55.573 38.5,55.5C 38.9731,54.0937 39.9731,53.427 41.5,53.5 Z"/></g>
<g><path style="opacity:0.157" fill="#acb5b7" d="M 255.5,49.5 C 257.914,50.9108 259.581,52.9108 260.5,55.5C 258.086,54.0892 256.419,52.0892 255.5,49.5 Z"/></g>
<g><path style="opacity:0.11" fill="#96a3a7" d="M 103.5,52.5 C 106.908,53.3668 110.242,54.5335 113.5,56C 114.942,56.3768 115.942,57.2101 116.5,58.5C 113.006,57.5367 109.673,56.2034 106.5,54.5C 105.893,54.6236 105.56,54.9569 105.5,55.5C 104.833,55.5 104.5,55.1667 104.5,54.5C 104.167,53.8333 103.833,53.1667 103.5,52.5 Z"/></g>
<g><path style="opacity:0.263" fill="#8b9a95" d="M 171.5,54.5 C 169.967,56.2451 167.967,57.2451 165.5,57.5C 167.033,55.7549 169.033,54.7549 171.5,54.5 Z"/></g>
<g><path style="opacity:1" fill="#0e2c44" d="M 200.5,52.5 C 198.302,53.1653 195.969,53.8319 193.5,54.5C 194.09,55.7989 195.09,56.6322 196.5,57C 193.19,59.4956 189.523,61.3289 185.5,62.5C 187.11,64.4948 188.443,66.6614 189.5,69C 192.648,70.6047 195.981,71.6047 199.5,72C 200.252,72.6708 200.586,73.5041 200.5,74.5C 199.167,74.5 197.833,74.5 196.5,74.5C 194.615,72.6885 192.281,71.5218 189.5,71C 182.654,70.1794 175.987,70.346 169.5,71.5C 167.833,71.5 166.167,71.5 164.5,71.5C 162.833,71.5 161.167,71.5 159.5,71.5C 165.673,69.39 172.006,67.5567 178.5,66C 180.167,64.6667 181.833,63.3333 183.5,62C 182.341,60.1733 181.008,58.5067 179.5,57C 176.808,56.5702 174.141,56.7369 171.5,57.5C 180.566,53.1657 190.233,51.4991 200.5,52.5 Z"/></g>
<g><path style="opacity:0.141" fill="#bcc6c5" d="M 53.5,56.5 C 52.3406,58.2503 50.674,59.2503 48.5,59.5C 49.6594,57.7497 51.326,56.7497 53.5,56.5 Z"/></g>
<g><path style="opacity:0.071" fill="#cad6d0" d="M 228.5,58.5 C 228.5,58.1667 228.5,57.8333 228.5,57.5C 230.027,57.427 231.027,58.0937 231.5,59.5C 231.167,59.5 230.833,59.5 230.5,59.5C 229.833,59.1667 229.167,58.8333 228.5,58.5 Z"/></g>
<g><path style="opacity:0.204" fill="#9da9a8" d="M 18.5,57.5 C 18.573,59.0269 17.9063,60.0269 16.5,60.5C 16.427,58.9731 17.0937,57.9731 18.5,57.5 Z"/></g>
<g><path style="opacity:0.824" fill="#48555d" d="M 35.5,57.5 C 33.4728,60.1939 31.1395,62.5272 28.5,64.5C 28.5858,63.5041 28.2524,62.6708 27.5,62C 29.3419,58.9832 32.0086,57.4832 35.5,57.5 Z"/></g>
<g><path style="opacity:0.157" fill="#d0d9d9" d="M 246.5,60.5 C 248.027,60.427 249.027,61.0937 249.5,62.5C 247.973,62.573 246.973,61.9063 246.5,60.5 Z"/></g>
<g><path style="opacity:1" fill="#0a2c4d" d="M 159.5,71.5 C 157.238,73.893 154.572,74.0597 151.5,72C 152.509,69.8282 154.176,68.6615 156.5,68.5C 156.33,67.1779 156.663,66.0113 157.5,65C 159.833,64.6667 162.167,64.3333 164.5,64C 162.109,63.3086 162.109,62.3086 164.5,61C 167.187,60.2715 169.52,59.1049 171.5,57.5C 174.141,56.7369 176.808,56.5702 179.5,57C 181.008,58.5067 182.341,60.1733 183.5,62C 181.833,63.3333 180.167,64.6667 178.5,66C 172.006,67.5567 165.673,69.39 159.5,71.5 Z"/></g>
<g><path style="opacity:0.906" fill="#627178" d="M 230.5,59.5 C 230.833,59.5 231.167,59.5 231.5,59.5C 234.533,61.016 237.2,63.016 239.5,65.5C 236.651,65.267 234.484,63.9337 233,61.5C 231.375,62.4119 230.541,61.7453 230.5,59.5 Z"/></g>
<g><path style="opacity:0.137" fill="#c2c4c1" d="M 16.5,60.5 C 16.573,62.0269 15.9063,63.0269 14.5,63.5C 14.427,61.9731 15.0937,60.9731 16.5,60.5 Z"/></g>
<g><path style="opacity:0.475" fill="#8d979a" d="M 44.5,62.5 C 44.0269,63.9063 43.0269,64.573 41.5,64.5C 41.9731,63.0937 42.9731,62.427 44.5,62.5 Z"/></g>
<g><path style="opacity:0.059" fill="#ccd7d8" d="M 155.5,63.5 C 155.167,64.5 154.5,65.1667 153.5,65.5C 153.5,64.1667 154.167,63.5 155.5,63.5 Z"/></g>
<g><path style="opacity:0.969" fill="#67747b" d="M 260.5,55.5 C 262.924,58.0078 264.59,61.0078 265.5,64.5C 264.604,63.4937 263.938,63.4937 263.5,64.5C 263.167,64.5 262.833,64.5 262.5,64.5C 262.595,61.3084 261.929,58.3084 260.5,55.5 Z"/></g>
<g><path style="opacity:1" fill="#152f46" d="M 116.5,58.5 C 118.153,58.6596 119.486,59.3263 120.5,60.5C 121.354,65.5141 124.687,68.6807 130.5,70C 131.794,72.0903 132.794,74.0903 133.5,76C 135.722,76.6946 137.889,77.5279 140,78.5C 140.765,78.4301 141.265,78.0967 141.5,77.5C 141.5,77.1667 141.5,76.8333 141.5,76.5C 143.484,76.6168 145.15,75.9501 146.5,74.5C 148.727,75.0525 151.061,75.0525 153.5,74.5C 153.5,75.8333 153.5,77.1667 153.5,78.5C 152.5,78.8333 151.833,79.5 151.5,80.5C 148.833,83.1667 146.167,85.8333 143.5,88.5C 143.44,87.9569 143.107,87.6236 142.5,87.5C 142.167,88.1667 141.833,88.8333 141.5,89.5C 138.394,87.0478 135.061,85.0478 131.5,83.5C 129.861,82.5275 128.527,81.1942 127.5,79.5C 127.027,78.0937 126.027,77.427 124.5,77.5C 124.027,76.0937 123.027,75.427 121.5,75.5C 120.047,74.1751 120.381,73.3418 122.5,73C 118.855,72.2811 115.188,71.7811 111.5,71.5C 111.167,71.5 110.833,71.5 110.5,71.5C 105.695,70.5128 100.695,70.1795 95.5,70.5C 98.5804,69.217 101.914,68.5504 105.5,68.5C 112.546,68.8626 119.379,70.1959 126,72.5C 127.257,72.1501 127.591,71.4835 127,70.5C 125.155,69.9505 123.655,68.9505 122.5,67.5C 118.476,66.9499 114.476,65.6165 110.5,63.5C 110.719,62.325 110.386,61.325 109.5,60.5C 108.261,60.0576 107.261,59.3909 106.5,58.5C 106.443,57.391 106.11,56.391 105.5,55.5C 105.56,54.9569 105.893,54.6236 106.5,54.5C 109.673,56.2034 113.006,57.5367 116.5,58.5 Z"/></g>
<g><path style="opacity:0.118" fill="#afbbb8" d="M 14.5,64.5 C 14.3404,66.153 13.6737,67.4863 12.5,68.5C 12.2291,66.6203 12.8958,65.287 14.5,64.5 Z"/></g>
<g><path style="opacity:1" fill="#515f6a" d="M 23.5,69.5 C 20.8304,73.5082 18.1637,77.5082 15.5,81.5C 15.5,80.1667 15.5,78.8333 15.5,77.5C 17.5934,75.5294 19.26,73.196 20.5,70.5C 20.2907,69.914 19.9574,69.414 19.5,69C 20.8193,68.805 22.1526,68.9717 23.5,69.5 Z"/></g>
<g><path style="opacity:0.984" fill="#536165" d="M 239.5,65.5 C 242.188,66.8549 244.188,68.8549 245.5,71.5C 244.5,71.5 243.5,71.5 242.5,71.5C 242.349,68.2819 241.516,67.9485 240,70.5C 239.506,68.8659 239.34,67.1992 239.5,65.5 Z"/></g>
<g><path style="opacity:1" fill="#203441" d="M 86.5,49.5 C 87.1667,49.5 87.8333,49.5 88.5,49.5C 91.9458,50.6874 95.6125,51.3541 99.5,51.5C 101.099,51.2322 102.432,51.5655 103.5,52.5C 103.833,53.1667 104.167,53.8333 104.5,54.5C 87.5537,50.8181 71.0537,52.1514 55,58.5C 52.4756,61.5259 49.3089,63.5259 45.5,64.5C 44.8333,66.1667 44.1667,67.8333 43.5,69.5C 40.203,69.7911 38.203,71.4577 37.5,74.5C 35.9705,75.0668 34.4705,75.7334 33,76.5C 29.1505,82.6673 25.3171,89.0007 21.5,95.5C 21.448,93.0971 21.7814,90.7638 22.5,88.5C 23.5886,83.9777 25.922,80.311 29.5,77.5C 31.5869,76.4154 32.9202,74.7488 33.5,72.5C 35.8062,69.5271 38.4728,66.8605 41.5,64.5C 43.0269,64.573 44.0269,63.9063 44.5,62.5C 45.4363,61.0256 46.7697,60.0256 48.5,59.5C 50.674,59.2503 52.3406,58.2503 53.5,56.5C 54.5137,55.3263 55.847,54.6596 57.5,54.5C 59.8984,54.7406 61.8984,54.0739 63.5,52.5C 66.7814,52.5797 69.7814,51.913 72.5,50.5C 77.1925,50.4599 81.8592,50.1266 86.5,49.5 Z"/></g>
<g><path style="opacity:0.647" fill="#94a5a7" d="M 169.5,71.5 C 175.987,70.346 182.654,70.1794 189.5,71C 192.281,71.5218 194.615,72.6885 196.5,74.5C 187.727,71.8436 178.727,70.8436 169.5,71.5 Z"/></g>
<g><path style="opacity:0.106" fill="#b3c5c7" d="M 12.5,69.5 C 12.573,71.0269 11.9063,72.0269 10.5,72.5C 10.427,70.9731 11.0937,69.9731 12.5,69.5 Z"/></g>
<g><path style="opacity:1" fill="#0b2b4a" d="M 104.5,54.5 C 104.5,55.1667 104.833,55.5 105.5,55.5C 106.11,56.391 106.443,57.391 106.5,58.5C 99.4694,58.5188 99.136,59.0188 105.5,60C 104.833,60.3333 104.167,60.6667 103.5,61C 104.5,61.8333 105.5,62.6667 106.5,63.5C 106.291,64.086 105.957,64.586 105.5,65C 97.6042,64.7774 90.1042,66.2774 83,69.5C 81.0858,68.324 81.2524,67.324 83.5,66.5C 79.5411,65.3401 75.5411,65.1735 71.5,66C 68.9545,69.3696 66.2878,72.5363 63.5,75.5C 61.8211,73.8955 59.8211,73.2289 57.5,73.5C 57.4467,76.1403 56.78,78.6403 55.5,81C 56.9035,84.4436 57.7368,87.9436 58,91.5C 55.368,90.4424 52.5346,89.109 49.5,87.5C 50.5783,90.1987 50.245,92.8653 48.5,95.5C 46.953,94.2318 45.953,92.5652 45.5,90.5C 44.1667,89.8333 42.8333,89.1667 41.5,88.5C 43.4572,84.3897 44.2906,80.0564 44,75.5C 41.5495,77.8845 39.3829,77.5512 37.5,74.5C 38.203,71.4577 40.203,69.7911 43.5,69.5C 44.1667,67.8333 44.8333,66.1667 45.5,64.5C 49.3089,63.5259 52.4756,61.5259 55,58.5C 71.0537,52.1514 87.5537,50.8181 104.5,54.5 Z"/></g>
<g><path style="opacity:0.082" fill="#b8c8c7" d="M 92.5,71.5 C 90.4006,72.6118 88.0673,73.2785 85.5,73.5C 87.4385,71.8372 89.7718,71.1706 92.5,71.5 Z"/></g>
<g><path style="opacity:0.953" fill="#6b7c7e" d="M 111.5,71.5 C 115.188,71.7811 118.855,72.2811 122.5,73C 120.381,73.3418 120.047,74.1751 121.5,75.5C 118.011,74.342 114.678,73.0086 111.5,71.5 Z"/></g>
<g><path style="opacity:0.137" fill="#b3bdbf" d="M 164.5,71.5 C 166.167,71.5 167.833,71.5 169.5,71.5C 167.401,72.6118 165.067,73.2785 162.5,73.5C 163.167,72.8333 163.833,72.1667 164.5,71.5 Z"/></g>
<g><path style="opacity:1" fill="#3d4f5f" d="M 95.5,70.5 C 100.695,70.1795 105.695,70.5128 110.5,71.5C 104.5,71.5 98.5,71.5 92.5,71.5C 89.7718,71.1706 87.4385,71.8372 85.5,73.5C 85.1583,74.3382 84.4916,74.6716 83.5,74.5C 80.8344,74.933 78.1677,75.433 75.5,76C 74.1667,76.6667 74.1667,77.3333 75.5,78C 74.552,78.4828 73.552,78.6495 72.5,78.5C 72.5,79.5 72.5,80.5 72.5,81.5C 68.8027,86.1909 65.136,90.8576 61.5,95.5C 61.1961,94.8501 60.8627,94.1835 60.5,93.5C 61.1667,93.1667 61.8333,92.8333 62.5,92.5C 62.1667,91.8333 61.8333,91.1667 61.5,90.5C 62.6948,88.2487 63.6948,85.9154 64.5,83.5C 66.6079,82.0562 68.9412,81.3896 71.5,81.5C 70.7253,77.8184 72.0586,75.3184 75.5,74C 81.8072,70.9715 88.4739,69.8048 95.5,70.5 Z"/></g>
<g><path style="opacity:0.961" fill="#30424e" d="M 120.5,60.5 C 127.809,65.8111 134.809,71.4777 141.5,77.5C 141.265,78.0967 140.765,78.4301 140,78.5C 137.889,77.5279 135.722,76.6946 133.5,76C 132.794,74.0903 131.794,72.0903 130.5,70C 124.687,68.6807 121.354,65.5141 120.5,60.5 Z"/></g>
<g><path style="opacity:0.043" fill="#c3cacc" d="M 258.5,72.5 C 259.906,72.9731 260.573,73.9731 260.5,75.5C 259.094,75.0269 258.427,74.0269 258.5,72.5 Z"/></g>
<g><path style="opacity:0.525" fill="#758181" d="M 33.5,72.5 C 32.9202,74.7488 31.5869,76.4154 29.5,77.5C 30.0798,75.2512 31.4131,73.5846 33.5,72.5 Z"/></g>
<g><path style="opacity:0.82" fill="#57666d" d="M 83.5,74.5 C 79.7004,76.5698 76.0338,78.9031 72.5,81.5C 72.5,80.5 72.5,79.5 72.5,78.5C 73.552,78.6495 74.552,78.4828 75.5,78C 74.1667,77.3333 74.1667,76.6667 75.5,76C 78.1677,75.433 80.8344,74.933 83.5,74.5 Z"/></g>
<g><path style="opacity:0.039" fill="#d7dad8" d="M 121.5,75.5 C 123.027,75.427 124.027,76.0937 124.5,77.5C 122.973,77.573 121.973,76.9063 121.5,75.5 Z"/></g>
<g><path style="opacity:1" fill="#293b4a" d="M 245.5,58.5 C 247.861,58.6741 250.194,59.0074 252.5,59.5C 252.351,60.552 252.517,61.552 253,62.5C 253.333,62.1667 253.667,61.8333 254,61.5C 254.973,63.64 256.473,65.3067 258.5,66.5C 259.392,69.2837 260.558,71.9504 262,74.5C 263.818,76.6454 265.318,76.6454 266.5,74.5C 264.996,71.3127 263.996,67.9793 263.5,64.5C 263.938,63.4937 264.604,63.4937 265.5,64.5C 267.592,67.0884 268.925,70.0884 269.5,73.5C 270.134,79.1448 270.468,84.8114 270.5,90.5C 270.167,91.8333 269.833,91.8333 269.5,90.5C 267.728,84.736 264.728,79.736 260.5,75.5C 260.573,73.9731 259.906,72.9731 258.5,72.5C 255.158,69.4908 252.158,66.1575 249.5,62.5C 249.027,61.0937 248.027,60.427 246.5,60.5C 246.167,59.8333 245.833,59.1667 245.5,58.5 Z"/></g>
<g><path style="opacity:0.169" fill="#a8b1b4" d="M 200.5,76.5 C 202.027,76.427 203.027,77.0937 203.5,78.5C 201.973,78.573 200.973,77.9063 200.5,76.5 Z"/></g>
<g><path style="opacity:1" fill="#0c2b4a" d="M 200.5,52.5 C 203.059,52.1984 205.393,52.5318 207.5,53.5C 207.804,54.1499 208.137,54.8165 208.5,55.5C 201.76,58.3945 201.926,61.0611 209,63.5C 211.464,62.8392 213.964,62.3392 216.5,62C 215.72,60.927 215.887,59.7604 217,58.5C 218.067,59.1905 219.234,59.6905 220.5,60C 219.5,60.3333 218.5,60.6667 217.5,61C 220.331,62.9175 222.831,62.4175 225,59.5C 228.408,63.6695 232.908,67.3362 238.5,70.5C 239.902,71.8425 239.569,72.6758 237.5,73C 239.439,73.9078 240.439,75.4078 240.5,77.5C 241.5,77.5 242.5,77.5 243.5,77.5C 243.553,80.0606 242.553,82.0606 240.5,83.5C 238.462,78.4274 236.129,78.2607 233.5,83C 230.5,83.6667 227.5,83.6667 224.5,83C 223.594,81.3005 223.261,79.4672 223.5,77.5C 220.813,77.3359 218.146,77.5026 215.5,78C 220.183,78.3989 221.683,80.8989 220,85.5C 217.294,83.5499 214.461,81.8832 211.5,80.5C 209.708,79.6909 207.708,79.1909 205.5,79C 204.366,77.984 204.699,77.3173 206.5,77C 204.372,76.3448 202.372,75.5114 200.5,74.5C 200.586,73.5041 200.252,72.6708 199.5,72C 195.981,71.6047 192.648,70.6047 189.5,69C 188.443,66.6614 187.11,64.4948 185.5,62.5C 189.523,61.3289 193.19,59.4956 196.5,57C 195.09,56.6322 194.09,55.7989 193.5,54.5C 195.969,53.8319 198.302,53.1653 200.5,52.5 Z"/></g>
<g><path style="opacity:0.106" fill="#b8bfca" d="M 124.5,77.5 C 126.027,77.427 127.027,78.0937 127.5,79.5C 125.973,79.573 124.973,78.9063 124.5,77.5 Z"/></g>
<g><path style="opacity:0.008" fill="#dce1e4" d="M 153.5,78.5 C 153.833,78.5 154.167,78.5 154.5,78.5C 154.027,79.9063 153.027,80.573 151.5,80.5C 151.833,79.5 152.5,78.8333 153.5,78.5 Z"/></g>
<g><path style="opacity:0.314" fill="#a3adb2" d="M 250.5,77.5 C 252.587,78.5846 253.92,80.2512 254.5,82.5C 253.5,81.8333 252.5,81.1667 251.5,80.5C 250.89,79.609 250.557,78.609 250.5,77.5 Z"/></g>
<g><path style="opacity:1" fill="#0c2b48" d="M 207.5,53.5 C 209.857,53.3367 212.19,53.5034 214.5,54C 218.947,56.4399 223.614,57.9399 228.5,58.5C 229.167,58.8333 229.833,59.1667 230.5,59.5C 230.541,61.7453 231.375,62.4119 233,61.5C 234.484,63.9337 236.651,65.267 239.5,65.5C 239.34,67.1992 239.506,68.8659 240,70.5C 241.516,67.9485 242.349,68.2819 242.5,71.5C 243.5,71.5 244.5,71.5 245.5,71.5C 247.914,72.9108 249.581,74.9108 250.5,77.5C 250.557,78.609 250.89,79.609 251.5,80.5C 251.989,83.4665 253.155,86.1332 255,88.5C 255.333,90.8333 255.667,93.1667 256,95.5C 257.011,96.3366 258.178,96.67 259.5,96.5C 260.423,104.28 261.923,111.946 264,119.5C 264.667,124.833 264.667,130.167 264,135.5C 261.568,142.994 259.901,150.661 259,158.5C 257.139,160.888 255.806,163.554 255,166.5C 254,167.167 253,167.833 252,168.5C 250.91,171.939 249.744,175.273 248.5,178.5C 246.72,179.99 246.054,181.99 246.5,184.5C 245.833,184.833 245.167,185.167 244.5,185.5C 243.127,185.343 241.793,185.51 240.5,186C 239.385,188.131 238.052,189.965 236.5,191.5C 236.51,186.085 237.177,180.752 238.5,175.5C 239.167,178.167 239.833,180.833 240.5,183.5C 242.121,181.376 243.954,179.376 246,177.5C 248.736,171.949 251.069,166.282 253,160.5C 254.333,159.833 255.667,159.167 257,158.5C 259.049,150.178 260.549,141.678 261.5,133C 261.123,128.486 260.623,123.986 260,119.5C 259.395,117.519 258.395,117.185 257,118.5C 257.053,116.064 256.887,113.731 256.5,111.5C 255.505,116.792 255.172,122.125 255.5,127.5C 254.167,127.5 252.833,127.5 251.5,127.5C 250.922,134.713 251.588,141.713 253.5,148.5C 252.311,149.429 250.978,149.762 249.5,149.5C 249.649,150.552 249.483,151.552 249,152.5C 248.667,152.167 248.333,151.833 248,151.5C 244.841,154.311 244.841,156.978 248,159.5C 248.215,165.395 245.382,168.729 239.5,169.5C 239.719,170.675 239.386,171.675 238.5,172.5C 235.812,173.005 233.645,174.338 232,176.5C 231.625,180.668 230.625,184.668 229,188.5C 227.933,187.809 226.766,187.309 225.5,187C 226.179,183.423 226.346,179.589 226,175.5C 225.586,175.043 225.086,174.709 224.5,174.5C 220.882,177.425 219.049,176.425 219,171.5C 217.926,170.382 216.76,169.382 215.5,168.5C 218.028,167.483 218.028,166.316 215.5,165C 216.448,164.517 217.448,164.351 218.5,164.5C 218.662,162.473 218.495,160.473 218,158.5C 217.667,158.833 217.333,159.167 217,159.5C 216.275,157.842 215.108,157.342 213.5,158C 214.668,159.406 214.335,160.572 212.5,161.5C 212.833,162.167 213.167,162.833 213.5,163.5C 212.136,163.378 210.803,163.378 209.5,163.5C 209.511,161.983 210.177,160.816 211.5,160C 210.244,159.583 209.577,158.75 209.5,157.5C 210.906,157.027 211.573,156.027 211.5,154.5C 213.679,154.16 215.512,153.16 217,151.5C 217.029,148.633 217.862,146.133 219.5,144C 218.748,143.329 218.414,142.496 218.5,141.5C 219.458,141.047 220.292,140.381 221,139.5C 221.719,135.855 222.219,132.188 222.5,128.5C 222.5,127.5 222.5,126.5 222.5,125.5C 223.881,117.421 223.547,109.255 221.5,101C 221.316,99.6244 220.649,98.7911 219.5,98.5C 219.519,96.9397 219.852,95.4397 220.5,94C 219.139,92.073 218.306,89.9063 218,87.5C 216.334,88.3402 216.167,87.8402 217.5,86C 216.285,83.9045 215.451,84.0712 215,86.5C 213.579,84.5952 212.412,82.5952 211.5,80.5C 214.461,81.8832 217.294,83.5499 220,85.5C 221.683,80.8989 220.183,78.3989 215.5,78C 218.146,77.5026 220.813,77.3359 223.5,77.5C 223.261,79.4672 223.594,81.3005 224.5,83C 227.5,83.6667 230.5,83.6667 233.5,83C 236.129,78.2607 238.462,78.4274 240.5,83.5C 242.553,82.0606 243.553,80.0606 243.5,77.5C 242.5,77.5 241.5,77.5 240.5,77.5C 240.439,75.4078 239.439,73.9078 237.5,73C 239.569,72.6758 239.902,71.8425 238.5,70.5C 232.908,67.3362 228.408,63.6695 225,59.5C 222.831,62.4175 220.331,62.9175 217.5,61C 218.5,60.6667 219.5,60.3333 220.5,60C 219.234,59.6905 218.067,59.1905 217,58.5C 215.887,59.7604 215.72,60.927 216.5,62C 213.964,62.3392 211.464,62.8392 209,63.5C 201.926,61.0611 201.76,58.3945 208.5,55.5C 208.137,54.8165 207.804,54.1499 207.5,53.5 Z"/></g>
<g><path style="opacity:0.012" fill="#d9e2e3" d="M 15.5,81.5 C 15.573,83.0269 14.9063,84.0269 13.5,84.5C 13.427,82.9731 14.0937,81.9731 15.5,81.5 Z"/></g>
<g><path style="opacity:0.125" fill="#bbc5c1" d="M 269.5,73.5 C 271.55,79.0896 271.883,84.7563 270.5,90.5C 270.468,84.8114 270.134,79.1448 269.5,73.5 Z"/></g>
<g><path style="opacity:1" fill="#0d2b48" d="M 106.5,58.5 C 107.261,59.3909 108.261,60.0576 109.5,60.5C 110.386,61.325 110.719,62.325 110.5,63.5C 114.476,65.6165 118.476,66.9499 122.5,67.5C 123.655,68.9505 125.155,69.9505 127,70.5C 127.591,71.4835 127.257,72.1501 126,72.5C 119.379,70.1959 112.546,68.8626 105.5,68.5C 101.914,68.5504 98.5804,69.217 95.5,70.5C 88.4739,69.8048 81.8072,70.9715 75.5,74C 72.0586,75.3184 70.7253,77.8184 71.5,81.5C 68.9412,81.3896 66.6079,82.0562 64.5,83.5C 63.6948,85.9154 62.6948,88.2487 61.5,90.5C 61.8333,91.1667 62.1667,91.8333 62.5,92.5C 61.8333,92.8333 61.1667,93.1667 60.5,93.5C 60.8627,94.1835 61.1961,94.8501 61.5,95.5C 60.5075,98.8229 59.5075,102.156 58.5,105.5C 57.7784,105.918 57.2784,106.584 57,107.5C 56.1808,113.681 56.3475,119.681 57.5,125.5C 58.2186,127.764 58.552,130.097 58.5,132.5C 59.4728,137.528 60.6395,142.528 62,147.5C 62.8763,149.635 64.3763,150.969 66.5,151.5C 66.5569,152.609 66.8902,153.609 67.5,154.5C 66.8333,154.5 66.5,154.833 66.5,155.5C 65.8333,155.167 65.1667,154.833 64.5,154.5C 62.3605,151.525 60.0271,148.692 57.5,146C 58.3925,141.978 57.2259,138.478 54,135.5C 51.7202,122.31 52.5535,109.31 56.5,96.5C 54.9547,95.5481 53.288,95.2148 51.5,95.5C 50.6951,98.2173 49.3618,100.717 47.5,103C 48.0239,105.413 49.0239,107.58 50.5,109.5C 49.4112,112.109 49.7446,114.609 51.5,117C 50.2959,121.428 49.4625,125.928 49,130.5C 48.0853,129.672 47.4186,128.672 47,127.5C 46.1677,106.177 45.6677,106.177 45.5,127.5C 41.8333,127.5 38.1667,127.5 34.5,127.5C 34.4036,121.062 33.5703,114.729 32,108.5C 31.2825,107.549 30.4491,107.383 29.5,108C 28.4464,109.388 28.2797,110.888 29,112.5C 30.6077,111.567 31.441,112.233 31.5,114.5C 29.3088,119.045 28.9755,123.712 30.5,128.5C 28.289,134.203 25.9557,134.537 23.5,129.5C 25.6172,125.324 25.9505,120.991 24.5,116.5C 23.3756,121.721 22.5423,121.721 22,116.5C 21.3988,118.137 20.8988,119.803 20.5,121.5C 21.343,127.462 21.343,133.296 20.5,139C 21.4601,140.419 22.2935,141.919 23,143.5C 24.6947,136.059 27.1947,135.726 30.5,142.5C 27.7841,147.327 27.4507,152.161 29.5,157C 28.6919,157.308 28.0253,157.808 27.5,158.5C 28.9905,159.244 30.4905,159.91 32,160.5C 32.2734,162.101 32.7734,163.601 33.5,165C 38.1548,165.499 42.8215,165.666 47.5,165.5C 48.0864,169.719 47.0864,173.386 44.5,176.5C 45.1667,176.833 45.8333,177.167 46.5,177.5C 49.3056,175.936 52.3056,175.27 55.5,175.5C 55.8266,180.214 55.4933,184.88 54.5,189.5C 51.1618,190.177 49.1618,192.177 48.5,195.5C 51.0243,196.963 53.0243,198.963 54.5,201.5C 52.4352,201.483 50.4352,201.15 48.5,200.5C 48.5,200.167 48.5,199.833 48.5,199.5C 48.4606,198.417 48.1272,197.417 47.5,196.5C 44.514,192.682 41.014,189.349 37,186.5C 36.657,183.807 35.3237,181.807 33,180.5C 29.0716,169.604 24.7383,158.938 20,148.5C 19.416,136.791 18.5827,125.124 17.5,113.5C 18.0372,112.259 18.7039,111.092 19.5,110C 18.1542,104.905 18.8209,100.072 21.5,95.5C 25.3171,89.0007 29.1505,82.6673 33,76.5C 34.4705,75.7334 35.9705,75.0668 37.5,74.5C 39.3829,77.5512 41.5495,77.8845 44,75.5C 44.2906,80.0564 43.4572,84.3897 41.5,88.5C 42.8333,89.1667 44.1667,89.8333 45.5,90.5C 45.953,92.5652 46.953,94.2318 48.5,95.5C 50.245,92.8653 50.5783,90.1987 49.5,87.5C 52.5346,89.109 55.368,90.4424 58,91.5C 57.7368,87.9436 56.9035,84.4436 55.5,81C 56.78,78.6403 57.4467,76.1403 57.5,73.5C 59.8211,73.2289 61.8211,73.8955 63.5,75.5C 66.2878,72.5363 68.9545,69.3696 71.5,66C 75.5411,65.1735 79.5411,65.3401 83.5,66.5C 81.2524,67.324 81.0858,68.324 83,69.5C 90.1042,66.2774 97.6042,64.7774 105.5,65C 105.957,64.586 106.291,64.086 106.5,63.5C 105.5,62.6667 104.5,61.8333 103.5,61C 104.167,60.6667 104.833,60.3333 105.5,60C 99.136,59.0188 99.4694,58.5188 106.5,58.5 Z"/></g>
<g><path style="opacity:0.165" fill="#cbd8d8" d="M 260.5,75.5 C 264.728,79.736 267.728,84.736 269.5,90.5C 266.11,85.7671 263.11,80.7671 260.5,75.5 Z"/></g>
<g><path style="opacity:0.114" fill="#c6cfd0" d="M 255.5,84.5 C 257.25,85.6594 258.25,87.326 258.5,89.5C 256.75,88.3406 255.75,86.674 255.5,84.5 Z"/></g>
<g><path style="opacity:0.137" fill="#98a29a" d="M 10.5,74.5 C 9.5784,79.4724 9.41173,84.4724 10,89.5C 10.3768,88.0577 11.2101,87.0577 12.5,86.5C 12.4754,89.179 11.142,90.5123 8.5,90.5C 8.71351,88.8561 8.38017,87.3561 7.5,86C 8.05597,81.9615 9.05597,78.1281 10.5,74.5 Z"/></g>
<g><path style="opacity:0.918" fill="#3f4b55" d="M 131.5,83.5 C 135.061,85.0478 138.394,87.0478 141.5,89.5C 141.833,88.8333 142.167,88.1667 142.5,87.5C 143.107,87.6236 143.44,87.9569 143.5,88.5C 142.969,90.5441 141.802,92.2107 140,93.5C 136.922,90.3213 134.088,86.988 131.5,83.5 Z"/></g>
<g><path style="opacity:0.996" fill="#303f4b" d="M 196.5,74.5 C 197.833,74.5 199.167,74.5 200.5,74.5C 202.372,75.5114 204.372,76.3448 206.5,77C 204.699,77.3173 204.366,77.984 205.5,79C 207.708,79.1909 209.708,79.6909 211.5,80.5C 212.412,82.5952 213.579,84.5952 215,86.5C 215.451,84.0712 216.285,83.9045 217.5,86C 216.167,87.8402 216.334,88.3402 218,87.5C 218.306,89.9063 219.139,92.073 220.5,94C 219.852,95.4397 219.519,96.9397 219.5,98.5C 215.598,90.699 210.264,84.0324 203.5,78.5C 203.027,77.0937 202.027,76.427 200.5,76.5C 198.847,76.3404 197.514,75.6737 196.5,74.5 Z"/></g>
<g><path style="opacity:0.082" fill="#d6dfdf" d="M 258.5,89.5 C 259.931,90.7804 260.598,92.4471 260.5,94.5C 259.069,93.2196 258.402,91.5529 258.5,89.5 Z"/></g>
<g><path style="opacity:0.914" fill="#718081" d="M 22.5,88.5 C 21.7814,90.7638 21.448,93.0971 21.5,95.5C 19.4747,97.854 17.808,100.521 16.5,103.5C 17.3475,97.9406 19.3475,92.9406 22.5,88.5 Z"/></g>
<g><path style="opacity:0.631" fill="#8b979d" d="M 219.5,98.5 C 220.649,98.7911 221.316,99.6244 221.5,101C 223.547,109.255 223.881,117.421 222.5,125.5C 223.031,116.303 222.031,107.303 219.5,98.5 Z"/></g>
<g><path style="opacity:0.412" fill="#9da8ab" d="M 262.5,100.5 C 264.258,103.854 265.258,107.521 265.5,111.5C 263.742,108.146 262.742,104.479 262.5,100.5 Z"/></g>
<g><path style="opacity:0.98" fill="#1b2e3c" d="M 251.5,80.5 C 252.5,81.1667 253.5,81.8333 254.5,82.5C 255.338,82.8417 255.672,83.5084 255.5,84.5C 255.75,86.674 256.75,88.3406 258.5,89.5C 258.402,91.5529 259.069,93.2196 260.5,94.5C 261.738,96.2143 262.405,98.2143 262.5,100.5C 262.742,104.479 263.742,108.146 265.5,111.5C 265.5,112.167 265.5,112.833 265.5,113.5C 265.638,123.854 265.305,134.188 264.5,144.5C 264.5,144.833 264.5,145.167 264.5,145.5C 263.232,147.905 262.565,150.572 262.5,153.5C 261.657,159.043 259.657,164.043 256.5,168.5C 254.455,169.923 253.455,171.923 253.5,174.5C 252.094,174.973 251.427,175.973 251.5,177.5C 250.609,178.11 249.609,178.443 248.5,178.5C 249.744,175.273 250.91,171.939 252,168.5C 253,167.833 254,167.167 255,166.5C 255.806,163.554 257.139,160.888 259,158.5C 259.901,150.661 261.568,142.994 264,135.5C 264.667,130.167 264.667,124.833 264,119.5C 261.923,111.946 260.423,104.28 259.5,96.5C 258.178,96.67 257.011,96.3366 256,95.5C 255.667,93.1667 255.333,90.8333 255,88.5C 253.155,86.1332 251.989,83.4665 251.5,80.5 Z"/></g>
<g><path style="opacity:1" fill="#0a2b4c" d="M 64.5,154.5 C 64.0833,157.079 64.75,159.246 66.5,161C 60.6939,163.294 54.3606,164.794 47.5,165.5C 42.8215,165.666 38.1548,165.499 33.5,165C 32.7734,163.601 32.2734,162.101 32,160.5C 30.4905,159.91 28.9905,159.244 27.5,158.5C 28.0253,157.808 28.6919,157.308 29.5,157C 27.4507,152.161 27.7841,147.327 30.5,142.5C 27.1947,135.726 24.6947,136.059 23,143.5C 22.2935,141.919 21.4601,140.419 20.5,139C 21.343,133.296 21.343,127.462 20.5,121.5C 20.8988,119.803 21.3988,118.137 22,116.5C 22.5423,121.721 23.3756,121.721 24.5,116.5C 25.9505,120.991 25.6172,125.324 23.5,129.5C 25.9557,134.537 28.289,134.203 30.5,128.5C 28.9755,123.712 29.3088,119.045 31.5,114.5C 31.441,112.233 30.6077,111.567 29,112.5C 28.2797,110.888 28.4464,109.388 29.5,108C 30.4491,107.383 31.2825,107.549 32,108.5C 33.5703,114.729 34.4036,121.062 34.5,127.5C 38.1667,127.5 41.8333,127.5 45.5,127.5C 45.6677,106.177 46.1677,106.177 47,127.5C 47.4186,128.672 48.0853,129.672 49,130.5C 49.4625,125.928 50.2959,121.428 51.5,117C 49.7446,114.609 49.4112,112.109 50.5,109.5C 49.0239,107.58 48.0239,105.413 47.5,103C 49.3618,100.717 50.6951,98.2173 51.5,95.5C 53.288,95.2148 54.9547,95.5481 56.5,96.5C 52.5535,109.31 51.7202,122.31 54,135.5C 57.2259,138.478 58.3925,141.978 57.5,146C 60.0271,148.692 62.3605,151.525 64.5,154.5 Z"/></g>
<g><path style="opacity:0.337" fill="#94a1a0" d="M 127.5,115.5 C 121.804,115.447 116.138,115.78 110.5,116.5C 116.125,113.607 121.792,113.274 127.5,115.5 Z"/></g>
<g><path style="opacity:0.388" fill="#99a0a3" d="M 166.5,115.5 C 160.471,115.425 154.471,115.759 148.5,116.5C 154.388,113.249 160.388,112.916 166.5,115.5 Z"/></g>
<g><path style="opacity:0.145" fill="#9da8a8" d="M 130.5,116.5 C 132.38,116.229 133.713,116.896 134.5,118.5C 132.847,118.34 131.514,117.674 130.5,116.5 Z"/></g>
<g><path style="opacity:0.267" fill="#859390" d="M 110.5,116.5 C 108.967,118.245 106.967,119.245 104.5,119.5C 105.911,117.461 107.911,116.461 110.5,116.5 Z"/></g>
<g><path style="opacity:0.251" fill="#8b9696" d="M 104.5,119.5 C 103.738,121.262 102.404,122.262 100.5,122.5C 101.262,120.738 102.596,119.738 104.5,119.5 Z"/></g>
<g><path style="opacity:0.114" fill="#ccd4d4" d="M 58.5,105.5 C 57.6204,112.123 57.287,118.789 57.5,125.5C 56.3475,119.681 56.1808,113.681 57,107.5C 57.2784,106.584 57.7784,105.918 58.5,105.5 Z"/></g>
<g><path style="opacity:0.386" fill="#8c9597" d="M 14.5,113.5 C 14.5,122.167 14.5,130.833 14.5,139.5C 11.9271,130.828 11.9271,122.161 14.5,113.5 Z"/></g>
<g><path style="opacity:1" fill="#0c2c4a" d="M 177.5,125.5 C 183.737,133.127 185.57,141.793 183,151.5C 180.641,156.533 177.474,161.033 173.5,165C 172.928,166.277 172.928,167.777 173.5,169.5C 165.98,169.319 160.813,172.652 158,179.5C 157.147,177.875 156.147,177.542 155,178.5C 155.543,173.455 158.377,170.455 163.5,169.5C 164.264,166.213 166.097,163.546 169,161.5C 170.185,159.13 171.351,156.797 172.5,154.5C 171.559,149.854 170.726,145.187 170,140.5C 169,139.5 168,138.5 167,137.5C 166.667,138.167 166.333,138.833 166,139.5C 165.329,138.748 164.496,138.414 163.5,138.5C 163.043,136.227 161.71,134.894 159.5,134.5C 158.319,132.933 156.653,132.099 154.5,132C 156.847,131.288 158.847,130.121 160.5,128.5C 157.708,123.891 154.041,123.225 149.5,126.5C 150.309,128.071 150.643,129.738 150.5,131.5C 148.833,131.5 147.167,131.5 145.5,131.5C 145.523,129.4 144.856,127.567 143.5,126C 144.817,124.386 146.483,123.219 148.5,122.5C 149.04,121.252 149.707,120.085 150.5,119C 154.195,118.682 157.862,118.182 161.5,117.5C 166.037,118.798 170.371,120.464 174.5,122.5C 174.343,123.873 174.51,125.207 175,126.5C 175.671,125.748 176.504,125.414 177.5,125.5 Z"/></g>
<g><path style="opacity:0.21" fill="#939d9f" d="M 265.5,113.5 C 266.166,117.653 266.499,121.987 266.5,126.5C 266.706,132.749 266.04,138.749 264.5,144.5C 265.305,134.188 265.638,123.854 265.5,113.5 Z"/></g>
<g><path style="opacity:1" fill="#0f2c47" d="M 166.5,115.5 C 167.791,115.263 168.791,115.596 169.5,116.5C 169.461,117.756 169.961,118.756 171,119.5C 172,119.5 173,119.5 174,119.5C 175.421,121.405 176.588,123.405 177.5,125.5C 176.504,125.414 175.671,125.748 175,126.5C 174.51,125.207 174.343,123.873 174.5,122.5C 170.371,120.464 166.037,118.798 161.5,117.5C 157.862,118.182 154.195,118.682 150.5,119C 149.707,120.085 149.04,121.252 148.5,122.5C 146.483,123.219 144.817,124.386 143.5,126C 144.856,127.567 145.523,129.4 145.5,131.5C 147.167,131.5 148.833,131.5 150.5,131.5C 150.643,129.738 150.309,128.071 149.5,126.5C 154.041,123.225 157.708,123.891 160.5,128.5C 158.847,130.121 156.847,131.288 154.5,132C 156.653,132.099 158.319,132.933 159.5,134.5C 155.873,135.482 152.207,135.649 148.5,135C 147.167,136 145.833,137 144.5,138C 145.654,138.914 145.487,139.747 144,140.5C 141.959,139.577 139.792,139.244 137.5,139.5C 137.649,138.448 137.483,137.448 137,136.5C 136.086,137.654 135.253,137.487 134.5,136C 126.733,135.269 119.066,135.769 111.5,137.5C 110.37,140.197 110.37,142.863 111.5,145.5C 111.5,145.833 111.5,146.167 111.5,146.5C 110.84,147.964 110.507,149.631 110.5,151.5C 110.556,153.64 111.223,155.306 112.5,156.5C 113.674,157.514 114.34,158.847 114.5,160.5C 116.094,163.764 118.427,166.431 121.5,168.5C 120.749,169.573 119.749,169.74 118.5,169C 117.789,167.745 116.956,166.579 116,165.5C 115.82,167.488 115.986,169.488 116.5,171.5C 120.021,171.83 123.021,173.33 125.5,176C 124.833,176.333 124.167,176.667 123.5,177C 124.451,177.718 124.617,178.551 124,179.5C 123.167,178.5 122.333,177.5 121.5,176.5C 119.518,177.623 117.518,177.623 115.5,176.5C 112.911,175.581 110.911,173.914 109.5,171.5C 108.738,169.738 107.404,168.738 105.5,168.5C 104.5,168.167 103.833,167.5 103.5,166.5C 103.721,165.265 104.388,164.265 105.5,163.5C 103.922,162.702 102.256,162.202 100.5,162C 100.38,160.287 100.547,158.454 101,156.5C 99.108,155.87 97.4413,154.87 96,153.5C 94.3351,147.195 94.1684,140.862 95.5,134.5C 97.9547,132.368 99.6214,129.701 100.5,126.5C 104.905,125.13 108.905,122.963 112.5,120C 115.923,119.451 119.256,118.618 122.5,117.5C 127.852,118.094 132.852,119.427 137.5,121.5C 138.961,122.686 140.295,122.686 141.5,121.5C 143.296,119.1 145.63,117.433 148.5,116.5C 154.471,115.759 160.471,115.425 166.5,115.5 Z"/></g>
<g><path style="opacity:0.541" fill="#859397" d="M 135.5,118.5 C 137.517,119.529 139.517,120.529 141.5,121.5C 140.295,122.686 138.961,122.686 137.5,121.5C 136.449,120.778 135.782,119.778 135.5,118.5 Z"/></g>
<g><path style="opacity:0.792" fill="#616c74" d="M 222.5,128.5 C 222.219,132.188 221.719,135.855 221,139.5C 220.292,140.381 219.458,141.047 218.5,141.5C 219.463,136.951 220.796,132.617 222.5,128.5 Z"/></g>
<g><path style="opacity:0.953" fill="#384752" d="M 159.5,134.5 C 161.71,134.894 163.043,136.227 163.5,138.5C 153.934,134.577 146.268,136.911 140.5,145.5C 138.016,143.517 135.683,141.35 133.5,139C 124.024,134.44 116.691,136.606 111.5,145.5C 110.37,142.863 110.37,140.197 111.5,137.5C 119.066,135.769 126.733,135.269 134.5,136C 135.253,137.487 136.086,137.654 137,136.5C 137.483,137.448 137.649,138.448 137.5,139.5C 139.792,139.244 141.959,139.577 144,140.5C 145.487,139.747 145.654,138.914 144.5,138C 145.833,137 147.167,136 148.5,135C 152.207,135.649 155.873,135.482 159.5,134.5 Z"/></g>
<g><path style="opacity:1" fill="#2c3e4c" d="M 169.5,116.5 C 181.368,121.223 187.701,130.056 188.5,143C 187.776,154.283 182.776,163.116 173.5,169.5C 172.928,167.777 172.928,166.277 173.5,165C 177.474,161.033 180.641,156.533 183,151.5C 185.57,141.793 183.737,133.127 177.5,125.5C 176.588,123.405 175.421,121.405 174,119.5C 173,119.5 172,119.5 171,119.5C 169.961,118.756 169.461,117.756 169.5,116.5 Z"/></g>
<g><path style="opacity:0.949" fill="#263946" d="M 127.5,115.5 C 128.791,115.263 129.791,115.596 130.5,116.5C 131.514,117.674 132.847,118.34 134.5,118.5C 134.833,118.5 135.167,118.5 135.5,118.5C 135.782,119.778 136.449,120.778 137.5,121.5C 132.852,119.427 127.852,118.094 122.5,117.5C 119.256,118.618 115.923,119.451 112.5,120C 108.905,122.963 104.905,125.13 100.5,126.5C 99.6214,129.701 97.9547,132.368 95.5,134.5C 94.1684,140.862 94.3351,147.195 96,153.5C 97.4413,154.87 99.108,155.87 101,156.5C 100.547,158.454 100.38,160.287 100.5,162C 102.256,162.202 103.922,162.702 105.5,163.5C 104.388,164.265 103.721,165.265 103.5,166.5C 99.5293,163.224 96.5293,159.224 94.5,154.5C 94.5979,152.447 93.9313,150.78 92.5,149.5C 90.3895,139.032 93.0562,130.032 100.5,122.5C 102.404,122.262 103.738,121.262 104.5,119.5C 106.967,119.245 108.967,118.245 110.5,116.5C 116.138,115.78 121.804,115.447 127.5,115.5 Z"/></g>
<g><path style="opacity:0.055" fill="#c2cbc9" d="M 264.5,145.5 C 264.706,148.495 264.04,151.162 262.5,153.5C 262.565,150.572 263.232,147.905 264.5,145.5 Z"/></g>
<g><path style="opacity:0.867" fill="#46555f" d="M 58.5,132.5 C 60.8512,138.881 63.5179,145.214 66.5,151.5C 64.3763,150.969 62.8763,149.635 62,147.5C 60.6395,142.528 59.4728,137.528 58.5,132.5 Z"/></g>
<g><path style="opacity:0.086" fill="#a7b3b2" d="M 167.5,143.5 C 168.117,143.611 168.617,143.944 169,144.5C 169.805,147.696 169.638,150.696 168.5,153.5C 168.658,150.098 168.324,146.764 167.5,143.5 Z"/></g>
<g><path style="opacity:0.322" fill="#90989e" d="M 15.5,147.5 C 17.4098,150.452 18.4098,153.786 18.5,157.5C 16.8993,154.45 15.8993,151.116 15.5,147.5 Z"/></g>
<g><path style="opacity:1" fill="#1e3243" d="M 21.5,95.5 C 18.8209,100.072 18.1542,104.905 19.5,110C 18.7039,111.092 18.0372,112.259 17.5,113.5C 18.5827,125.124 19.416,136.791 20,148.5C 24.7383,158.938 29.0716,169.604 33,180.5C 35.3237,181.807 36.657,183.807 37,186.5C 41.014,189.349 44.514,192.682 47.5,196.5C 48.1272,197.417 48.4606,198.417 48.5,199.5C 47.3951,198.4 46.0618,197.733 44.5,197.5C 40.1529,194.152 36.4863,190.152 33.5,185.5C 33.573,183.973 32.9063,182.973 31.5,182.5C 31.2928,178.826 29.6262,176.16 26.5,174.5C 25.0937,174.027 24.427,173.027 24.5,171.5C 23.9819,168.113 23.1486,164.779 22,161.5C 21.5831,160.244 20.7498,159.577 19.5,159.5C 18.6618,159.158 18.3284,158.492 18.5,157.5C 18.4098,153.786 17.4098,150.452 15.5,147.5C 14.612,144.946 14.2786,142.279 14.5,139.5C 14.5,130.833 14.5,122.167 14.5,113.5C 14.322,109.878 14.9886,106.544 16.5,103.5C 17.808,100.521 19.4747,97.854 21.5,95.5 Z"/></g>
<g><path style="opacity:0.91" fill="#37484f" d="M 218.5,141.5 C 218.414,142.496 218.748,143.329 219.5,144C 217.862,146.133 217.029,148.633 217,151.5C 215.512,153.16 213.679,154.16 211.5,154.5C 213.583,150 215.916,145.666 218.5,141.5 Z"/></g>
<g><path style="opacity:0.165" fill="#abb8b9" d="M 92.5,149.5 C 93.9313,150.78 94.5979,152.447 94.5,154.5C 93.0687,153.22 92.4021,151.553 92.5,149.5 Z"/></g>
<g><path style="opacity:0.204" fill="#88949a" d="M 66.5,151.5 C 67.9063,151.973 68.573,152.973 68.5,154.5C 68.1667,154.5 67.8333,154.5 67.5,154.5C 66.8902,153.609 66.5569,152.609 66.5,151.5 Z"/></g>
<g><path style="opacity:0.698" fill="#69737d" d="M 111.5,146.5 C 111.46,149.881 111.793,153.214 112.5,156.5C 111.223,155.306 110.556,153.64 110.5,151.5C 110.507,149.631 110.84,147.964 111.5,146.5 Z"/></g>
<g><path style="opacity:0.204" fill="#a6afb1" d="M 68.5,154.5 C 70.2624,155.262 71.2624,156.596 71.5,158.5C 69.7376,157.738 68.7376,156.404 68.5,154.5 Z"/></g>
<g><path style="opacity:0.192" fill="#9eaaac" d="M 211.5,154.5 C 211.573,156.027 210.906,157.027 209.5,157.5C 209.427,155.973 210.094,154.973 211.5,154.5 Z"/></g>
<g><path style="opacity:0.71" fill="#5a666c" d="M 19.5,159.5 C 20.7498,159.577 21.5831,160.244 22,161.5C 23.1486,164.779 23.9819,168.113 24.5,171.5C 21.7633,168.017 20.0966,164.017 19.5,159.5 Z"/></g>
<g><path style="opacity:0.216" fill="#b5bcc3" d="M 71.5,158.5 C 73.2624,159.262 74.2624,160.596 74.5,162.5C 72.7376,161.738 71.7376,160.404 71.5,158.5 Z"/></g>
<g><path style="opacity:0.192" fill="#b2bcc0" d="M 114.5,160.5 C 117.573,162.569 119.906,165.236 121.5,168.5C 118.427,166.431 116.094,163.764 114.5,160.5 Z"/></g>
<g><path style="opacity:0.396" fill="#adb6b6" d="M 76.5,164.5 C 80.2343,167.231 83.2343,170.564 85.5,174.5C 81.7657,171.769 78.7657,168.436 76.5,164.5 Z"/></g>
<g><path style="opacity:1" fill="#0b2b4b" d="M 236.5,191.5 C 233.864,192.824 231.198,192.824 228.5,191.5C 227.115,195.378 225.949,195.378 225,191.5C 224.333,192.833 223.667,192.833 223,191.5C 222.5,192.667 221.667,193.5 220.5,194C 222.167,195.333 223.833,196.667 225.5,198C 224.614,199.615 223.614,201.115 222.5,202.5C 219.306,202.824 218.306,201.658 219.5,199C 215.572,197.284 211.572,197.117 207.5,198.5C 207.449,196.43 208.115,194.597 209.5,193C 208.956,190.6 208.289,188.267 207.5,186C 206.551,185.383 205.718,185.549 205,186.5C 206.61,191.396 204.777,193.396 199.5,192.5C 199.739,190.533 199.406,188.699 198.5,187C 199.949,185.883 201.616,185.216 203.5,185C 197.501,181.63 193.501,183.463 191.5,190.5C 189.036,192.245 186.37,193.079 183.5,193C 182.549,192.282 182.383,191.449 183,190.5C 185.25,189.292 187.417,187.959 189.5,186.5C 189.553,185.153 189.553,183.82 189.5,182.5C 191.187,181.082 193.02,179.749 195,178.5C 196.064,175.436 197.897,172.936 200.5,171C 201.448,170.517 202.448,170.351 203.5,170.5C 204.344,167.312 206.344,164.979 209.5,163.5C 210.803,163.378 212.136,163.378 213.5,163.5C 213.167,162.833 212.833,162.167 212.5,161.5C 214.335,160.572 214.668,159.406 213.5,158C 215.108,157.342 216.275,157.842 217,159.5C 217.333,159.167 217.667,158.833 218,158.5C 218.495,160.473 218.662,162.473 218.5,164.5C 217.448,164.351 216.448,164.517 215.5,165C 218.028,166.316 218.028,167.483 215.5,168.5C 216.76,169.382 217.926,170.382 219,171.5C 219.049,176.425 220.882,177.425 224.5,174.5C 225.086,174.709 225.586,175.043 226,175.5C 226.346,179.589 226.179,183.423 225.5,187C 226.766,187.309 227.933,187.809 229,188.5C 230.625,184.668 231.625,180.668 232,176.5C 233.645,174.338 235.812,173.005 238.5,172.5C 239.386,171.675 239.719,170.675 239.5,169.5C 245.382,168.729 248.215,165.395 248,159.5C 244.841,156.978 244.841,154.311 248,151.5C 248.333,151.833 248.667,152.167 249,152.5C 249.483,151.552 249.649,150.552 249.5,149.5C 250.978,149.762 252.311,149.429 253.5,148.5C 251.588,141.713 250.922,134.713 251.5,127.5C 252.833,127.5 254.167,127.5 255.5,127.5C 255.172,122.125 255.505,116.792 256.5,111.5C 256.887,113.731 257.053,116.064 257,118.5C 258.395,117.185 259.395,117.519 260,119.5C 260.623,123.986 261.123,128.486 261.5,133C 260.549,141.678 259.049,150.178 257,158.5C 255.667,159.167 254.333,159.833 253,160.5C 251.069,166.282 248.736,171.949 246,177.5C 243.954,179.376 242.121,181.376 240.5,183.5C 239.833,180.833 239.167,178.167 238.5,175.5C 237.177,180.752 236.51,186.085 236.5,191.5 Z"/></g>
<g><path style="opacity:0.2" fill="#abb1af" d="M 203.5,164.5 C 202.92,166.749 201.587,168.415 199.5,169.5C 200.08,167.251 201.413,165.585 203.5,164.5 Z"/></g>
<g><path style="opacity:0.369" fill="#839ca0" d="M 105.5,168.5 C 107.404,168.738 108.738,169.738 109.5,171.5C 107.596,171.262 106.262,170.262 105.5,168.5 Z"/></g>
<g><path style="opacity:1" fill="#293a44" d="M 209.5,157.5 C 209.577,158.75 210.244,159.583 211.5,160C 210.177,160.816 209.511,161.983 209.5,163.5C 206.344,164.979 204.344,167.312 203.5,170.5C 202.448,170.351 201.448,170.517 200.5,171C 197.897,172.936 196.064,175.436 195,178.5C 193.02,179.749 191.187,181.082 189.5,182.5C 188.035,183.406 187.035,184.739 186.5,186.5C 183.049,186.786 181.049,188.619 180.5,192C 177.833,193 175.167,194 172.5,195C 172.833,195.333 173.167,195.667 173.5,196C 172.108,198.228 170.108,199.394 167.5,199.5C 168.5,198.167 169.5,196.833 170.5,195.5C 175.844,190.157 181.511,185.157 187.5,180.5C 190.089,179.581 192.089,177.914 193.5,175.5C 195.215,173.118 197.215,171.118 199.5,169.5C 201.587,168.415 202.92,166.749 203.5,164.5C 205.273,161.94 207.273,159.607 209.5,157.5 Z"/></g>
<g><path style="opacity:0.569" fill="#868c92" d="M 256.5,168.5 C 256.346,170.97 255.346,172.97 253.5,174.5C 253.455,171.923 254.455,169.923 256.5,168.5 Z"/></g>
<g><path style="opacity:0.467" fill="#707879" d="M 157.5,169.5 C 156.089,171.914 154.089,173.581 151.5,174.5C 152.911,172.086 154.911,170.419 157.5,169.5 Z"/></g>
<g><path style="opacity:1" fill="#0d2b49" d="M 64.5,154.5 C 65.1667,154.833 65.8333,155.167 66.5,155.5C 71.0648,162.526 76.2314,168.526 82,173.5C 83.113,174.76 83.2797,175.927 82.5,177C 84.7885,177.822 87.1218,178.489 89.5,179C 90.1029,180.825 90.7696,182.659 91.5,184.5C 96.8822,187.58 102.216,190.58 107.5,193.5C 109.168,195.34 110.668,197.34 112,199.5C 112.383,198.944 112.883,198.611 113.5,198.5C 114.262,200.262 115.596,201.262 117.5,201.5C 120.446,207.278 124.613,211.945 130,215.5C 131.459,217.432 132.625,219.432 133.5,221.5C 133.047,222.458 132.381,223.292 131.5,224C 128.167,224.667 124.833,224.667 121.5,224C 121.453,221.705 120.12,219.871 117.5,218.5C 116.859,220.296 115.859,221.796 114.5,223C 115.649,224.744 116.983,224.911 118.5,223.5C 119.297,230.126 119.964,236.459 120.5,242.5C 119.09,243.569 118.09,244.903 117.5,246.5C 114.574,245.302 111.574,244.302 108.5,243.5C 107.402,242.603 107.402,241.77 108.5,241C 107.051,239.883 105.384,239.216 103.5,239C 100.919,233.446 96.5857,230.612 90.5,230.5C 90.0269,229.094 89.0269,228.427 87.5,228.5C 87.0269,227.094 86.0269,226.427 84.5,226.5C 84.0269,225.094 83.0269,224.427 81.5,224.5C 78.8646,223.189 76.5313,221.522 74.5,219.5C 73.2085,216.599 71.2085,214.266 68.5,212.5C 67.8681,209.97 66.8681,207.637 65.5,205.5C 64.2322,206.428 62.8989,206.595 61.5,206C 59.5203,203.836 57.187,202.336 54.5,201.5C 53.0243,198.963 51.0243,196.963 48.5,195.5C 49.1618,192.177 51.1618,190.177 54.5,189.5C 55.4933,184.88 55.8266,180.214 55.5,175.5C 52.3056,175.27 49.3056,175.936 46.5,177.5C 45.8333,177.167 45.1667,176.833 44.5,176.5C 47.0864,173.386 48.0864,169.719 47.5,165.5C 54.3606,164.794 60.6939,163.294 66.5,161C 64.75,159.246 64.0833,157.079 64.5,154.5 Z"/></g>
<g><path style="opacity:0.871" fill="#6b767c" d="M 26.5,174.5 C 29.6262,176.16 31.2928,178.826 31.5,182.5C 29.0499,180.371 27.3833,177.704 26.5,174.5 Z"/></g>
<g><path style="opacity:0.259" fill="#a3afb0" d="M 86.5,174.5 C 87.8333,175.167 88.8333,176.167 89.5,177.5C 87.5,177.5 86.5,176.5 86.5,174.5 Z"/></g>
<g><path style="opacity:0.788" fill="#5d696c" d="M 166.5,175.5 C 164.833,177.833 162.833,179.833 160.5,181.5C 160.658,177.582 162.658,175.582 166.5,175.5 Z"/></g>
<g><path style="opacity:0.11" fill="#b7c5c7" d="M 253.5,174.5 C 253.573,176.027 252.906,177.027 251.5,177.5C 251.427,175.973 252.094,174.973 253.5,174.5 Z"/></g>
<g><path style="opacity:0.31" fill="#909b98" d="M 193.5,175.5 C 192.089,177.914 190.089,179.581 187.5,180.5C 188.911,178.086 190.911,176.419 193.5,175.5 Z"/></g>
<g><path style="opacity:0.89" fill="#5b6572" d="M 251.5,177.5 C 250.567,180.37 248.9,182.704 246.5,184.5C 246.054,181.99 246.72,179.99 248.5,178.5C 249.609,178.443 250.609,178.11 251.5,177.5 Z"/></g>
<g><path style="opacity:1" fill="#253947" d="M 173.5,169.5 C 171.781,172.219 169.447,174.219 166.5,175.5C 162.658,175.582 160.658,177.582 160.5,181.5C 154.039,186.791 147.705,192.291 141.5,198C 137.953,197.645 135.286,195.812 133.5,192.5C 135.41,191.295 136.743,191.962 137.5,194.5C 139.396,195.466 141.396,195.799 143.5,195.5C 143.238,194.022 143.571,192.689 144.5,191.5C 145.086,191.709 145.586,192.043 146,192.5C 148.024,190.31 149.857,187.977 151.5,185.5C 150.73,183.728 149.397,182.728 147.5,182.5C 145.289,183.685 142.955,184.685 140.5,185.5C 139.893,185.376 139.56,185.043 139.5,184.5C 143.5,181.167 147.5,177.833 151.5,174.5C 154.089,173.581 156.089,171.914 157.5,169.5C 162.368,164.97 166.035,159.637 168.5,153.5C 169.638,150.696 169.805,147.696 169,144.5C 168.617,143.944 168.117,143.611 167.5,143.5C 166.197,141.858 164.864,140.191 163.5,138.5C 164.496,138.414 165.329,138.748 166,139.5C 166.333,138.833 166.667,138.167 167,137.5C 168,138.5 169,139.5 170,140.5C 170.726,145.187 171.559,149.854 172.5,154.5C 171.351,156.797 170.185,159.13 169,161.5C 166.097,163.546 164.264,166.213 163.5,169.5C 158.377,170.455 155.543,173.455 155,178.5C 156.147,177.542 157.147,177.875 158,179.5C 160.813,172.652 165.98,169.319 173.5,169.5 Z"/></g>
<g><path style="opacity:1" fill="#2b3d4c" d="M 121.5,168.5 C 127.885,173.366 133.885,178.699 139.5,184.5C 137.9,185.512 136.566,185.012 135.5,183C 132.779,182.432 130.112,182.099 127.5,182C 127.167,182.333 126.833,182.667 126.5,183C 128.592,185.797 130.592,188.63 132.5,191.5C 126.531,186.865 120.864,181.865 115.5,176.5C 117.518,177.623 119.518,177.623 121.5,176.5C 122.333,177.5 123.167,178.5 124,179.5C 124.617,178.551 124.451,177.718 123.5,177C 124.167,176.667 124.833,176.333 125.5,176C 123.021,173.33 120.021,171.83 116.5,171.5C 115.986,169.488 115.82,167.488 116,165.5C 116.956,166.579 117.789,167.745 118.5,169C 119.749,169.74 120.749,169.573 121.5,168.5 Z"/></g>
<g><path style="opacity:1" fill="#263543" d="M 66.5,155.5 C 66.5,154.833 66.8333,154.5 67.5,154.5C 67.8333,154.5 68.1667,154.5 68.5,154.5C 68.7376,156.404 69.7376,157.738 71.5,158.5C 71.7376,160.404 72.7376,161.738 74.5,162.5C 75.5,162.833 76.1667,163.5 76.5,164.5C 78.7657,168.436 81.7657,171.769 85.5,174.5C 85.8333,174.5 86.1667,174.5 86.5,174.5C 86.5,176.5 87.5,177.5 89.5,177.5C 91.1667,178.5 92.5,179.833 93.5,181.5C 94.5846,183.587 96.2512,184.92 98.5,185.5C 99.5,185.833 100.167,186.5 100.5,187.5C 100.973,188.906 101.973,189.573 103.5,189.5C 105.167,190.5 106.5,191.833 107.5,193.5C 102.216,190.58 96.8822,187.58 91.5,184.5C 90.7696,182.659 90.1029,180.825 89.5,179C 87.1218,178.489 84.7885,177.822 82.5,177C 83.2797,175.927 83.113,174.76 82,173.5C 76.2314,168.526 71.0648,162.526 66.5,155.5 Z"/></g>
<g><path style="opacity:0.004" fill="#ccd2d4" d="M 31.5,182.5 C 32.9063,182.973 33.573,183.973 33.5,185.5C 32.0937,185.027 31.427,184.027 31.5,182.5 Z"/></g>
<g><path style="opacity:0.031" fill="#c8c9ca" d="M 93.5,181.5 C 95.7488,182.08 97.4154,183.413 98.5,185.5C 96.2512,184.92 94.5846,183.587 93.5,181.5 Z"/></g>
<g><path style="opacity:0.067" fill="#b5b9bd" d="M 246.5,184.5 C 246.573,186.027 245.906,187.027 244.5,187.5C 244.5,186.833 244.5,186.167 244.5,185.5C 245.167,185.167 245.833,184.833 246.5,184.5 Z"/></g>
<g><path style="opacity:0.02" fill="#cce4e5" d="M 100.5,187.5 C 102.027,187.427 103.027,188.094 103.5,189.5C 101.973,189.573 100.973,188.906 100.5,187.5 Z"/></g>
<g><path style="opacity:0.031" fill="#cacfcf" d="M 243.5,188.5 C 242.92,190.749 241.587,192.415 239.5,193.5C 240.08,191.251 241.413,189.585 243.5,188.5 Z"/></g>
<g><path style="opacity:1" fill="#132c47" d="M 139.5,184.5 C 139.56,185.043 139.893,185.376 140.5,185.5C 142.955,184.685 145.289,183.685 147.5,182.5C 149.397,182.728 150.73,183.728 151.5,185.5C 149.857,187.977 148.024,190.31 146,192.5C 145.586,192.043 145.086,191.709 144.5,191.5C 143.571,192.689 143.238,194.022 143.5,195.5C 141.396,195.799 139.396,195.466 137.5,194.5C 136.743,191.962 135.41,191.295 133.5,192.5C 132.833,192.5 132.5,192.167 132.5,191.5C 130.592,188.63 128.592,185.797 126.5,183C 126.833,182.667 127.167,182.333 127.5,182C 130.112,182.099 132.779,182.432 135.5,183C 136.566,185.012 137.9,185.512 139.5,184.5 Z"/></g>
<g><path style="opacity:1" fill="#0d2b48" d="M 189.5,182.5 C 189.553,183.82 189.553,185.153 189.5,186.5C 187.417,187.959 185.25,189.292 183,190.5C 182.383,191.449 182.549,192.282 183.5,193C 186.37,193.079 189.036,192.245 191.5,190.5C 193.501,183.463 197.501,181.63 203.5,185C 201.616,185.216 199.949,185.883 198.5,187C 199.406,188.699 199.739,190.533 199.5,192.5C 204.777,193.396 206.61,191.396 205,186.5C 205.718,185.549 206.551,185.383 207.5,186C 208.289,188.267 208.956,190.6 209.5,193C 208.115,194.597 207.449,196.43 207.5,198.5C 211.572,197.117 215.572,197.284 219.5,199C 218.306,201.658 219.306,202.824 222.5,202.5C 223.547,203.078 223.38,203.744 222,204.5C 221.667,204.167 221.333,203.833 221,203.5C 220.208,205.587 219.041,207.421 217.5,209C 209.38,214.69 201.047,220.19 192.5,225.5C 189.032,224.291 187.032,225.625 186.5,229.5C 186.567,230.959 186.234,232.292 185.5,233.5C 182.743,236.579 179.41,238.912 175.5,240.5C 172.592,241.713 169.592,242.879 166.5,244C 164.845,245.444 164.178,247.278 164.5,249.5C 161.082,250.247 158.416,251.414 156.5,253C 155.663,254.011 155.33,255.178 155.5,256.5C 153.174,257.953 150.674,259.286 148,260.5C 147.805,261.819 147.972,263.153 148.5,264.5C 145.854,267.812 142.854,270.812 139.5,273.5C 137.255,271.322 135.255,268.988 133.5,266.5C 133.736,263.774 132.903,261.441 131,259.5C 125.719,258.842 123.052,255.509 123,249.5C 120.942,248.771 119.109,247.771 117.5,246.5C 118.09,244.903 119.09,243.569 120.5,242.5C 119.964,236.459 119.297,230.126 118.5,223.5C 116.983,224.911 115.649,224.744 114.5,223C 115.859,221.796 116.859,220.296 117.5,218.5C 120.12,219.871 121.453,221.705 121.5,224C 124.833,224.667 128.167,224.667 131.5,224C 132.381,223.292 133.047,222.458 133.5,221.5C 135.05,222.441 136.716,223.107 138.5,223.5C 140.933,223.727 142.599,222.727 143.5,220.5C 146.167,217.167 149.167,214.167 152.5,211.5C 156.436,209.234 159.769,206.234 162.5,202.5C 164.411,201.925 166.078,200.925 167.5,199.5C 170.108,199.394 172.108,198.228 173.5,196C 173.167,195.667 172.833,195.333 172.5,195C 175.167,194 177.833,193 180.5,192C 181.049,188.619 183.049,186.786 186.5,186.5C 187.035,184.739 188.035,183.406 189.5,182.5 Z"/></g>
<g><path style="opacity:1" fill="#172f43" d="M 244.5,185.5 C 244.5,186.167 244.5,186.833 244.5,187.5C 244.5,188.167 244.167,188.5 243.5,188.5C 241.413,189.585 240.08,191.251 239.5,193.5C 239.5,194.167 239.167,194.5 238.5,194.5C 235.562,195.628 232.562,196.795 229.5,198C 228.62,199.356 228.286,200.856 228.5,202.5C 225.5,202.167 224.167,203.5 224.5,206.5C 223.055,208.063 221.389,209.396 219.5,210.5C 217.565,211.15 215.565,211.483 213.5,211.5C 213.567,212.959 213.234,214.292 212.5,215.5C 211.71,216.401 210.71,217.068 209.5,217.5C 206.802,217.845 204.802,219.178 203.5,221.5C 200.022,223.539 195.689,225.206 190.5,226.5C 190.5,227.5 190.5,228.5 190.5,229.5C 189.167,229.5 187.833,229.5 186.5,229.5C 187.032,225.625 189.032,224.291 192.5,225.5C 201.047,220.19 209.38,214.69 217.5,209C 219.041,207.421 220.208,205.587 221,203.5C 221.333,203.833 221.667,204.167 222,204.5C 223.38,203.744 223.547,203.078 222.5,202.5C 223.614,201.115 224.614,199.615 225.5,198C 223.833,196.667 222.167,195.333 220.5,194C 221.667,193.5 222.5,192.667 223,191.5C 223.667,192.833 224.333,192.833 225,191.5C 225.949,195.378 227.115,195.378 228.5,191.5C 231.198,192.824 233.864,192.824 236.5,191.5C 238.052,189.965 239.385,188.131 240.5,186C 241.793,185.51 243.127,185.343 244.5,185.5 Z"/></g>
<g><path style="opacity:0.404" fill="#a0aab0" d="M 44.5,197.5 C 46.0618,197.733 47.3951,198.4 48.5,199.5C 48.5,199.833 48.5,200.167 48.5,200.5C 46.5956,200.262 45.2623,199.262 44.5,197.5 Z"/></g>
<g><path style="opacity:0.835" fill="#707d81" d="M 107.5,193.5 C 110.089,194.419 112.089,196.086 113.5,198.5C 112.883,198.611 112.383,198.944 112,199.5C 110.668,197.34 109.168,195.34 107.5,193.5 Z"/></g>
<g><path style="opacity:0.024" fill="#becece" d="M 113.5,198.5 C 115.404,198.738 116.738,199.738 117.5,201.5C 115.596,201.262 114.262,200.262 113.5,198.5 Z"/></g>
<g><path style="opacity:0.365" fill="#788885" d="M 170.5,195.5 C 169.5,196.833 168.5,198.167 167.5,199.5C 166.078,200.925 164.411,201.925 162.5,202.5C 164.569,199.427 167.236,197.094 170.5,195.5 Z"/></g>
<g><path style="opacity:0.698" fill="#3e4d54" d="M 238.5,194.5 C 234.153,198.845 229.486,202.845 224.5,206.5C 224.167,203.5 225.5,202.167 228.5,202.5C 228.286,200.856 228.62,199.356 229.5,198C 232.562,196.795 235.562,195.628 238.5,194.5 Z"/></g>
<g><path style="opacity:1" fill="#263949" d="M 48.5,200.5 C 50.4352,201.15 52.4352,201.483 54.5,201.5C 57.187,202.336 59.5203,203.836 61.5,206C 62.8989,206.595 64.2322,206.428 65.5,205.5C 66.8681,207.637 67.8681,209.97 68.5,212.5C 71.2085,214.266 73.2085,216.599 74.5,219.5C 68.0667,215.582 61.7334,211.415 55.5,207C 52.7121,205.281 50.3788,203.115 48.5,200.5 Z"/></g>
<g><path style="opacity:0.016" fill="#c0c9ca" d="M 123.5,207.5 C 125.749,208.08 127.415,209.413 128.5,211.5C 126.251,210.92 124.585,209.587 123.5,207.5 Z"/></g>
<g><path style="opacity:0.702" fill="#2e3f4a" d="M 117.5,201.5 C 119.833,203.167 121.833,205.167 123.5,207.5C 124.585,209.587 126.251,210.92 128.5,211.5C 132.167,214.5 135.5,217.833 138.5,221.5C 138.5,222.167 138.5,222.833 138.5,223.5C 136.716,223.107 135.05,222.441 133.5,221.5C 132.625,219.432 131.459,217.432 130,215.5C 124.613,211.945 120.446,207.278 117.5,201.5 Z"/></g>
<g><path style="opacity:0.592" fill="#6d7678" d="M 162.5,202.5 C 159.769,206.234 156.436,209.234 152.5,211.5C 155.231,207.766 158.564,204.766 162.5,202.5 Z"/></g>
<g><path style="opacity:0.827" fill="#808b92" d="M 219.5,210.5 C 217.45,212.547 215.117,214.214 212.5,215.5C 213.234,214.292 213.567,212.959 213.5,211.5C 215.565,211.483 217.565,211.15 219.5,210.5 Z"/></g>
<g><path style="opacity:0.161" fill="#aebaba" d="M 209.5,217.5 C 207.853,219.326 205.853,220.66 203.5,221.5C 204.802,219.178 206.802,217.845 209.5,217.5 Z"/></g>
<g><path style="opacity:0.282" fill="#7d909a" d="M 143.5,220.5 C 142.599,222.727 140.933,223.727 138.5,223.5C 138.5,222.833 138.5,222.167 138.5,221.5C 139.117,221.611 139.617,221.944 140,222.5C 140.816,221.177 141.983,220.511 143.5,220.5 Z"/></g>
<g><path style="opacity:0.196" fill="#9ba3a6" d="M 81.5,224.5 C 83.0269,224.427 84.0269,225.094 84.5,226.5C 82.9731,226.573 81.9731,225.906 81.5,224.5 Z"/></g>
<g><path style="opacity:0.204" fill="#8c979c" d="M 84.5,226.5 C 86.0269,226.427 87.0269,227.094 87.5,228.5C 85.9731,228.573 84.9731,227.906 84.5,226.5 Z"/></g>
<g><path style="opacity:0.412" fill="#838c8e" d="M 87.5,228.5 C 89.0269,228.427 90.0269,229.094 90.5,230.5C 88.9731,230.573 87.9731,229.906 87.5,228.5 Z"/></g>
<g><path style="opacity:1" fill="#404e58" d="M 90.5,230.5 C 96.5857,230.612 100.919,233.446 103.5,239C 105.384,239.216 107.051,239.883 108.5,241C 107.402,241.77 107.402,242.603 108.5,243.5C 102.138,239.654 96.1381,235.321 90.5,230.5 Z"/></g>
<g><path style="opacity:0.843" fill="#56636a" d="M 203.5,221.5 C 197.852,225.993 191.852,229.993 185.5,233.5C 186.234,232.292 186.567,230.959 186.5,229.5C 187.833,229.5 189.167,229.5 190.5,229.5C 190.5,228.5 190.5,227.5 190.5,226.5C 195.689,225.206 200.022,223.539 203.5,221.5 Z"/></g>
<g><path style="opacity:0.945" fill="#4e5e62" d="M 175.5,240.5 C 172.149,243.848 168.482,246.848 164.5,249.5C 164.178,247.278 164.845,245.444 166.5,244C 169.592,242.879 172.592,241.713 175.5,240.5 Z"/></g>
<g><path style="opacity:1" fill="#2e3f4b" d="M 108.5,243.5 C 111.574,244.302 114.574,245.302 117.5,246.5C 119.109,247.771 120.942,248.771 123,249.5C 123.052,255.509 125.719,258.842 131,259.5C 132.903,261.441 133.736,263.774 133.5,266.5C 125.441,258.437 117.107,250.77 108.5,243.5 Z"/></g>
<g><path style="opacity:0.02" fill="#e3e8e5" d="M 160.5,253.5 C 159.738,255.262 158.404,256.262 156.5,256.5C 157.262,254.738 158.596,253.738 160.5,253.5 Z"/></g>
<g><path style="opacity:0.984" fill="#495860" d="M 164.5,249.5 C 163.5,251.167 162.167,252.5 160.5,253.5C 158.596,253.738 157.262,254.738 156.5,256.5C 154.167,259.5 151.5,262.167 148.5,264.5C 147.972,263.153 147.805,261.819 148,260.5C 150.674,259.286 153.174,257.953 155.5,256.5C 155.33,255.178 155.663,254.011 156.5,253C 158.416,251.414 161.082,250.247 164.5,249.5 Z"/></g>
</svg>
